<svg version="1.1" id="Layer_1" xmlns="http://www.w3.org/2000/svg" x="0" y="0" viewBox="0 0 1920 414" style="enable-background:new 0 0 1920 414" xml:space="preserve"><style>.st1{opacity:.2;fill:#5c7dec;enable-background:new}.st5{fill:#fff}.st10{fill:#009ce0}.st11{fill:#f4f9fb}.st13{opacity:.6}.st15{fill:#001d67}.st16{fill:#00164e}.st17{fill:#2772b3}.st18{fill:#2a47a9}.st19{fill:#012376}.st20{fill:#94dbb2}.st21{fill:#9ed7e4}.st22{fill:#e8636a}.st23{fill:#82f7ff}.st24{fill:#f7dea4}.st25,.st26,.st27{fill:none;stroke:#6ccae4;stroke-width:1.0424;stroke-miterlimit:10}.st26,.st27{stroke:#01216c}.st27{stroke:#f79f6e}.st30{display:none}.st31,.st33,.st36{display:inline}.st33{fill:none;stroke:#6e7ae3;stroke-width:5.954;stroke-linecap:round;stroke-linejoin:round;stroke-miterlimit:10}.st36{fill-rule:evenodd;clip-rule:evenodd;fill:#fff}.st37{fill:#4495c7}.st38{fill:#fdc4c3}.st39{fill:#ef6422}.st43{fill:#2b9d85}.st44{fill:#f79f6e}.st45{fill:#666198}.st46{fill:#b390c5}.st48{fill:#059abc}.st49{fill:#8bcde8}.st51{fill:#6e71ad}.st52{fill:#5a5e9d}.st53{fill:#444889}.st54{fill:#eb4136}.st55{fill:#f7ac40}.st56{fill:#28a6dd}.st57{fill:#39b14a}.st58{fill:#5dbedd}.st59{fill:#1388ad}.st60{fill:#f1f8f9}.st61{fill:#b7e1f6}.st63,.st64{display:inline;fill:#16a2c5}.st64{fill:#1388ad}.st67{fill:#9cd1ea}.st68{display:inline;fill:#364365}.st70{fill:#16a2c5}.st71{fill:#4f5e7c}.st73{fill:#27bed8}.st75{fill:#01b2d1}.st82{display:inline;fill:none;stroke:#6e7ae3;stroke-width:3.0599;stroke-linecap:round;stroke-linejoin:round;stroke-miterlimit:10}.st83{stroke:#fff;stroke-width:2.295}.st83,.st84,.st86,.st89{fill:none;stroke-miterlimit:10}.st84{stroke:#6e7ae3;stroke-width:1.53;stroke-linecap:round}.st86,.st89{stroke:#01216c;stroke-width:.9898}.st89{display:inline;stroke:#6e7ae3;stroke-width:5.6533;stroke-linecap:round;stroke-linejoin:round}.st92{fill:#1c1a97}.st100,.st94,.st95,.st96{fill:none;stroke:#6ccae4;stroke-width:1.0879;stroke-miterlimit:10}.st100,.st95,.st96{stroke:#01216c}.st100,.st96{stroke:#f79f6e}.st100{display:inline;stroke:#6e7ae3;stroke-width:6.214;stroke-linecap:round;stroke-linejoin:round}.st106{fill:#dd500f}.st109{fill:#f26319}.st110{fill:#d04300}.st112{fill:#231e20}.st113{fill:#80534f}.st117{fill:#2d365c}.st118{fill:#3a436b}.st119{fill:#575f80}.st120{fill:#474e76}</style><path d="M125.1 327c-21.1-9.8-74.7-42.4-65.1-20.3 7.4 16.7-32.2-12.4-60.3-29.3v69.1c42.6 2.6 86.2.9 133.4.1 30.8-.4 23.8-4.9-8-19.6z" style="opacity:.1;fill:#547fca;enable-background:new"/><path class="st1" d="M1889.5 194.1c-21.2 14-42.6 27.5-64.2 40.6-21.7 13.1-43.7 25.6-66.1 37.5l-.1-.3c22.2-12.2 44-25.1 65.4-38.5s42.7-27.2 63.7-41.4c10.7-7.2 21.4-14.6 31.9-22V0H-.3v210.6c12 8.4 24.3 16.8 36.4 25 21 14.2 42.2 28 63.7 41.4 21.5 13.4 43.3 26.3 65.4 38.5l-.1.3c-22.4-11.9-44.4-24.5-66.1-37.5s-43.1-26.7-64.2-40.6C23.2 230 11.2 222.3-.3 214.4v33.4c43 29 93.1 55.7 148.8 79.5 121.5 51.8-6.5-61.2 53.2-36.8 201.4 82.1 465.5 122.6 754.8 122.6 273.1 0 547.3-52.2 743.8-126.7 23.2-8.8-47.3 46.7 35.3 16 10.4-3.9 101.5-39.9 184.5-92v-36.7c-10 6.9-20.4 13.6-30.6 20.4zM1920.1 288.6c-33.6 12.1-67.7 23.9-100.4 34.6-33.5 10.9 56.3-15.3 78.2-2.6 4.9 2.8 13.2 5.9 22.2 8v-40z"/><path class="st1" d="M1868.2 313.1c8-1.9 16-3.9 24-5.9s16-4 24-6.1c1.3-.3 2.6-.7 3.9-1v2.6c-1.1.2-2.2.5-3.3.7-8.1 1.8-16.1 3.6-24.2 5.3l-24.3 4.8-.1-.4z" style="opacity:.2"/><path class="st1" d="M1920.1 235.6c-14.5 9.4-31.1 20.6-50.2 28.9-27.6 11.9 1.1-20.1-13.4-11.8-68.3 39.2-148.5 73.2-162.2 71.7-18.2-2 26.3 40.4 225.8-44.9v-43.9z"/><path d="M125.4 326.8c-21.1-9.8-74.7-42.4-65.1-20.3 7.4 16.7-32.5-12.4-60.6-29.3v69.1c42.6 2.6 86.5.9 133.7.1 30.8-.4 23.8-4.9-8-19.6z" style="opacity:.1;fill:#5c7dec;enable-background:new"/><path class="st5" d="M124.2 338.8c-10.1-.1-20.2-.4-30.3-1s-20.2-1.4-30.2-2.4-20.1-2.2-30-4.1c-10-1.9-24.3-4.3-34-7.2v-.3c10 1.4 24.6 3 34.5 4.5s19.9 3.4 29.8 4.7 20 2.5 30 3.3 20.1 1.6 30.2 2.1v.4z" style="opacity:.89"/><path d="m-1.7-1.5.1 79.3C66.7 157.2 168 228.4 290.2 285.1c26 12.1-3-20.9 27.4-10 173.9 62.3 376.3 106.1 608.2 106.1 209.4 0 404.3-32.2 567-87.5 10.3-3.5 20.5-7.1 30.5-10.8 187.9-69 329-167.1 394.1-284.3H-1.7v-.1z" style="fill:#062c90"/><linearGradient id="SVGID_1_" gradientUnits="userSpaceOnUse" x1="1662.957" y1="172.776" x2="1574.464" y2="269.833"><stop offset=".116" style="stop-color:#8688f1"/><stop offset=".255" style="stop-color:#7a6ede;stop-opacity:.8433"/><stop offset=".464" style="stop-color:#6b4cc6;stop-opacity:.6066"/><stop offset=".663" style="stop-color:#6034b4;stop-opacity:.3809"/><stop offset=".847" style="stop-color:#5925aa;stop-opacity:.1731"/><stop offset="1" style="stop-color:#5720a6;stop-opacity:0"/></linearGradient><path d="M1580.3 266.4c-.1-2.2-.2-3.4-.3-5.6 3.1-1.1 4.6-1.6 7.7-2.7" style="fill:url(#SVGID_1_)"/><path d="M1920.1 0H-.3v72.8C69.5 164.6 183.8 247.3 321 311c26 12.1-3-20.9 27.4-10 173.9 62.4 376.3 106.1 608.1 106.1 209.4 0 404.3-32.2 567-87.5 10.3-3.5 20.5-7.1 30.5-10.8 164.2-60.3 292.9-144.8 366.1-243.5V0z" style="fill:none"/><path d="M169.2 206.2c.7 0 .2-.4-.2-.4-.7 0-.2.4.2.4z" style="fill:#68cfdf"/><circle class="st5" cx="1556.5" cy="109" r="1.4"/><path class="st5" d="M647.4 136.5c.7 0 1.2-.6 1.2-1.2s-.6-1.2-1.2-1.2-1.2.6-1.2 1.2.5 1.2 1.2 1.2"/><path class="st10" d="M563.1 164.5c.4 0 .7-.3.7-.7 0-.4-.3-.7-.7-.7-.4 0-.7.3-.7.7 0 .4.3.7.7.7M1338.5 80.5c.4 0 .7-.3.7-.7 0-.4-.3-.7-.7-.7s-.7.3-.7.7c0 .4.3.7.7.7M658.2 221.5c.4 0 .7-.3.7-.7 0-.4-.3-.7-.7-.7-.4 0-.7.3-.7.7 0 .4.3.7.7.7M1679.6 38.6c1.1.2 2.1-.4 2.4-1.5.2-1.1-.4-2.1-1.5-2.4-.3-.1-.6-.1-.9 0-1.1.2-1.8 1.3-1.5 2.4.2.7.8 1.3 1.5 1.5M590.1 95.5c1.1.2 2.1-.4 2.4-1.5.2-1.1-.4-2.1-1.5-2.4-.3-.1-.6-.1-.9 0-1.1.2-1.8 1.3-1.5 2.4.2.7.7 1.3 1.5 1.5"/><path class="st5" d="M994 52.8c.4 0 .8-.3.8-.8s-.3-.8-.8-.8-.8.3-.8.8.4.8.8.8"/><path class="st10" d="M1108.4 219.9c.4 0 .8-.3.8-.8s-.3-.8-.8-.8-.8.3-.8.8.4.8.8.8"/><path class="st11" d="M1115.6 47.9c.8 0 1.4-.6 1.4-1.4s-.6-1.4-1.4-1.4c-.8 0-1.4.6-1.4 1.4s.7 1.4 1.4 1.4M1188.3 125.4c.8 0 1.4-.6 1.4-1.4 0-.8-.6-1.4-1.4-1.4-.8 0-1.4.6-1.4 1.4 0 .7.6 1.4 1.4 1.4"/><path class="st10" d="M1205.2 46.5c.4 0 .8-.3.8-.8s-.3-.8-.8-.8-.8.3-.8.8.4.8.8.8M1102.9 78.5c.4 0 .8-.3.8-.8s-.3-.8-.8-.8-.8.3-.8.8.4.8.8.8"/><path d="M760.9 259.7c.4 0 .8-.3.8-.8s-.3-.8-.8-.8-.8.3-.8.8.4.8.8.8" style="fill:#d893f5"/><path class="st10" d="M1173.8 70.4c2.7 0 2.7-4.2 0-4.2s-2.7 4.2 0 4.2"/><path class="st11" d="M1678.1 148.6c.4 0 .8-.3.8-.8s-.3-.8-.8-.8-.8.3-.8.8.4.8.8.8"/><path class="st10" d="M1663.1 109.4c.4 0 .8-.3.8-.8s-.3-.8-.8-.8-.8.3-.8.8.4.8.8.8M1726.7 112.6c2.7 0 2.7-4.2 0-4.2s-2.7 4.2 0 4.2M778.1 227.7c2.7 0 2.7-4.2 0-4.2s-2.7 4.2 0 4.2M538.1 35.6c2.7 0 2.7-4.2 0-4.2s-2.7 4.2 0 4.2M852.1 71.6c.4 0 .8-.3.8-.8s-.3-.8-.8-.8-.8.3-.8.8.4.8.8.8M930.3 51.2c.4 0 .8-.3.8-.8s-.3-.8-.8-.8-.8.3-.8.8.4.8.8.8M878.1 33.5c2.7 0 2.7-4.2 0-4.2s-2.7 4.2 0 4.2"/><path class="st5" d="M949 57.3c2.7 0 2.7-4.2 0-4.2s-2.7 4.2 0 4.2M1832.4 29.7c.4 0 .8-.3.8-.8s-.3-.8-.8-.8-.8.3-.8.8.4.8.8.8"/><path class="st10" d="M1564.3 45.1c.4 0 .8-.3.8-.8s-.3-.8-.8-.8-.8.3-.8.8.3.8.8.8M1890.2 52.8c.4 0 .8-.3.8-.8s-.3-.8-.8-.8-.8.3-.8.8.4.8.8.8"/><path class="st5" d="M397.2 137.4c.4 0 .8-.3.8-.8s-.3-.8-.8-.8-.8.3-.8.8.4.8.8.8"/><path class="st10" d="M410 164.5c.4 0 .8-.3.8-.8s-.3-.8-.8-.8-.8.3-.8.8.4.8.8.8"/><path class="st5" d="M1752.4 61.5c2.7 0 2.7-4.2 0-4.2s-2.7 4.2 0 4.2M1647.8 54.2c2.7 0 2.7-4.2 0-4.2s-2.7 4.2 0 4.2"/><path class="st10" d="M139 48.1c1.1.2 2.1-.4 2.4-1.5.2-1.1-.4-2.1-1.5-2.4-.3-.1-.6-.1-.9 0-1.1.2-1.8 1.3-1.5 2.4.2.8.7 1.3 1.5 1.5"/><path class="st11" d="M137.4 158.1c.4 0 .8-.3.8-.8s-.3-.8-.8-.8-.8.3-.8.8.4.8.8.8"/><path class="st10" d="M122.5 118.9c.4 0 .8-.3.8-.8s-.3-.8-.8-.8-.8.3-.8.8.4.8.8.8M186.1 122.2c2.7 0 2.7-4.2 0-4.2s-2.7 4.2 0 4.2"/><path class="st5" d="M291.7 39.2c.4 0 .8-.3.8-.8s-.3-.8-.8-.8-.7.4-.7.9.3.7.7.7"/><path class="st10" d="M241.4 143.1c.4 0 .8-.3.8-.8s-.3-.8-.8-.8-.8.3-.8.8.4.8.8.8M412.4 82.5c.4 0 .8-.3.8-.8s-.3-.8-.8-.8-.8.3-.8.8.4.8.8.8"/><path class="st5" d="M211.7 71.1c2.7 0 2.7-4.2 0-4.2s-2.7 4.2 0 4.2M253.8 177.7c2.7 0 2.7-4.2 0-4.2s-2.7 4.2 0 4.2M107.1 63.7c2.7 0 2.7-4.2 0-4.2s-2.7 4.2 0 4.2"/><path class="st10" d="M1381 256.7c.1 0 .2-.1.2-.1 0-.1-.1-.2-.2-.2s-.2.1-.2.2c.1 0 .2.1.2.1M1458 65.8c.6 0 1.1-.5 1.1-1.1 0-.6-.5-1.1-1.1-1.1-.6 0-1.1.5-1.1 1.1 0 .6.5 1.1 1.1 1.1"/><path class="st5" d="M568 125.3c.6-.1 1-.6 1-1.2-.1-.5-.5-.9-1-1-.6.1-1 .6-1 1.2.1.6.5.9 1 1"/><g class="st13"><linearGradient id="SVGID_2_" gradientUnits="userSpaceOnUse" x1="1425.181" y1="687.524" x2="1421.009" y2="740.243" gradientTransform="matrix(1 -.00133 -.00133 .919 -5.994 -364.445)"><stop offset="0" style="stop-color:#2155c8"/><stop offset=".049" style="stop-color:#2155c8;stop-opacity:.951"/><stop offset="1" style="stop-color:#2155c8;stop-opacity:0"/></linearGradient><path style="fill:url(#SVGID_2_)" d="m1475.5 270-248.9 52.7 226.1 4.9 151.3-51.7z"/></g><path class="st15" d="M1619.9 266.9c.4-69.9.8-106.1 1.2-176 0-5.1-.9-7.8-8-8.3-17.7-1.2-49.4-3.1-49.4-3.1-19 2.1-38.1 4.2-55.1 5.8-1.4.1-2.6.5-2.6 2 0 65 .1 129 .1 193.9 0 1.4 1.1 2.7 2.6 2.8 22.4 2.1 33 3.2 55.5 5.5l49.9-17c2.4-.4 5.7-1.5 5.8-5.6z"/><path class="st16" d="M1570.3 282.8c.3-63.6.5-127.1.8-190.7 0-6.7-4.8-11.5-10.9-10.9-25.4 2.6-50.7 5-76.1 7.2-6.2.5-11.3 6.1-11.3 12.5 0 57.6.1 115.3.1 172.9 0 3.4 2.8 6.4 6.2 6.7 28.5 2.3 56.9 5.1 85.3 8 3.2.3 5.9-2.2 5.9-5.7z"/><path class="st17" d="M1470.9 273.3c0-57.6 0-115.1-.1-172.7 0-3.4 1.3-6.7 3.7-9.4 2.4-2.6 5.5-4.2 8.9-4.5 25.4-2.2 50.8-4.7 76.1-7.3 3.3-.3 6.3.7 8.6 3s3.6 5.6 3.5 9.2c-.3 63.6-.5 127.2-.8 190.8 0 2.9-1.6 5.3-3.9 6.3-1 .5-2.2.7-3.5.6-28.4-2.9-56.8-5.7-85.3-8-3.8-.2-7.2-3.8-7.2-8zm88.7-191c-25.4 2.5-50.7 5-76.1 7.1-2.7.2-5.2 1.5-7.1 3.6-1.9 2.1-2.9 4.7-2.9 7.5 0 57.7.1 115.4.1 173 0 2.7 2.2 5.1 4.8 5.3 28.5 2.3 56.9 5.1 85.3 8 1.3.1 2.5-.3 3.4-1.1.9-.8 1.4-2 1.4-3.4.3-63.4.5-126.9.7-190.3 0-2.8-1-5.4-2.8-7.2-1.8-1.9-4.2-2.7-6.8-2.5z"/><path class="st18" d="M1568.9 89.3c0 11.2-.1 22.4-.1 33.6-10.5.6-20.9 1.3-31.4 1.9-.5 0-1-.2-1.4-.5-.6-.6-.9-.9-1.4-1.5-.4-.4-.9-.6-1.4-.5-7.7.5-11.6.7-19.3 1.2-.5 0-1 .3-1.4.7-.6.7-.9 1-1.5 1.6-.4.4-.9.7-1.4.7-10.2.6-15.4.8-25.6 1.4-2.3.1-4.1-1.7-4.1-4v-22.6c0-2.3 1.8-4.4 4.1-4.5 28.2-2.3 56.4-4.8 84.6-7.5.2-.3.3-.1.3 0zM1568.7 127.8c0 11.5-.1 23.1-.1 34.6-10.5.1-21.1.3-31.6.4-.5 0-1-.2-1.4-.6-.6-.6-.9-.9-1.4-1.6-.4-.4-.9-.6-1.4-.6-7.7.1-11.5.2-19.2.3-.5 0-1 .2-1.4.6-.6.6-.9.9-1.4 1.6-.4.4-.9.6-1.4.6-10.2.1-15.3.2-25.6.3-2.3 0-4.1-1.8-4.1-4.2v-22.7c0-2.3 1.8-4.3 4.1-4.4 28.3-1.2 56.6-2.7 84.9-4.3z"/><path class="st19" d="M1509.3 141.5c1.3 0 1.9-.1 3.2-.1V138c-1.3.1-1.9.1-3.2.1v3.4z"/><path class="st20" d="M1503.9 141.7c1.3 0 1.9-.1 3.2-.1v-3.4c-1.3.1-1.9.1-3.2.1v3.4z"/><path class="st19" d="M1498.4 141.9c1.3 0 1.9-.1 3.2-.1v-3.4c-1.3.1-1.9.1-3.2.1v3.4zM1492.9 142.1c1.3 0 1.9-.1 3.2-.1v-3.4c-1.3.1-1.9.1-3.2.1v3.4zM1487.4 142.3c1.3 0 1.9-.1 3.2-.1v-3.4c-1.3.1-1.9.1-3.2.1v3.4zM1509.3 148c1.3 0 1.9-.1 3.2-.1v-3.4c-1.3 0-1.9.1-3.2.1v3.4zM1503.9 148.2c1.3 0 1.9-.1 3.2-.1v-3.4c-1.3 0-1.9.1-3.2.1v3.4zM1498.4 148.3c1.3 0 1.9-.1 3.2-.1v-3.4c-1.3 0-1.9.1-3.2.1v3.4zM1492.9 148.5c1.3 0 1.9-.1 3.2-.1V145c-1.3 0-1.9.1-3.2.1v3.4zM1487.4 148.6c1.3 0 1.9-.1 3.2-.1v-3.4c-1.3 0-1.9.1-3.2.1v3.4zM1509.3 154.5c1.3 0 1.9 0 3.2-.1V151c-1.3 0-1.9.1-3.2.1v3.4zM1503.9 154.7c1.3 0 1.9 0 3.2-.1v-3.4c-1.3 0-1.9.1-3.2.1v3.4zM1498.4 154.8c1.3 0 1.9 0 3.2-.1v-3.4c-1.3 0-1.9 0-3.2.1v3.4zM1492.9 154.9c1.3 0 1.9 0 3.2-.1v-3.4c-1.3 0-1.9 0-3.2.1v3.4z"/><path class="st21" d="M1487.4 155c1.3 0 1.9 0 3.2-.1v-3.4c-1.3 0-1.9 0-3.2.1v3.4z"/><path class="st19" d="M1531.5 140.6c1.3-.1 1.9-.1 3.2-.1V137c-1.3.1-1.9.1-3.2.1v3.5zM1526 140.9c1.3-.1 1.9-.1 3.2-.1v-3.5c-1.3.1-1.9.1-3.2.1v3.5zM1520.6 141.1c1.3 0 1.9-.1 3.2-.1v-3.5c-1.3.1-1.9.1-3.2.1v3.5zM1515.1 141.3c1.3 0 1.9-.1 3.2-.1v-3.5c-1.3.1-1.9.1-3.2.1v3.5zM1531.5 147.3c1.3 0 1.9-.1 3.2-.1v-3.5c-1.3 0-1.9.1-3.2.1v3.5zM1526 147.5c1.3 0 1.9-.1 3.2-.1v-3.5c-1.3 0-1.9.1-3.2.1v3.5zM1520.6 147.7c1.3 0 1.9-.1 3.2-.1v-3.5c-1.3 0-1.9.1-3.2.1v3.5z"/><path class="st22" d="M1515.1 147.8c1.3 0 1.9-.1 3.2-.1v-3.5c-1.3 0-1.9.1-3.2.1v3.5z"/><path class="st19" d="M1531.5 154c1.3 0 1.9 0 3.2-.1v-3.5c-1.3 0-1.9.1-3.2.1v3.5zM1526 154.2c1.3 0 1.9 0 3.2-.1v-3.5c-1.3 0-1.9.1-3.2.1v3.5zM1520.6 154.3c1.3 0 1.9 0 3.2-.1v-3.5c-1.3 0-1.9.1-3.2.1v3.5zM1515.1 154.4c1.3 0 1.9 0 3.2-.1v-3.5c-1.3 0-1.9.1-3.2.1v3.5zM1509.3 103.8c1.3-.1 1.9-.2 3.2-.3v-3.4c-1.3.1-1.9.2-3.2.3v3.4zM1503.9 104.2c1.3-.1 1.9-.1 3.2-.2v-3.4c-1.3.1-1.9.2-3.2.3v3.3zM1498.4 104.6c1.3-.1 1.9-.1 3.2-.2V101c-1.3.1-1.9.2-3.2.3v3.3z"/><path class="st22" d="M1492.9 105c1.3-.1 1.9-.1 3.2-.2v-3.4c-1.3.1-1.9.1-3.2.2v3.4z"/><path class="st19" d="M1487.4 105.4c1.3-.1 1.9-.1 3.2-.2v-3.3c-1.3.1-1.9.1-3.2.2v3.3z"/><path class="st21" d="M1509.3 110.2c1.3-.1 1.9-.1 3.2-.2v-3.4c-1.3.1-1.9.1-3.2.2v3.4z"/><path class="st19" d="M1503.9 110.6c1.3-.1 1.9-.1 3.2-.2V107c-1.3.1-1.9.1-3.2.2v3.4zM1498.4 111c1.3-.1 1.9-.1 3.2-.2v-3.4c-1.3.1-1.9.1-3.2.2v3.4zM1492.9 111.4c1.3-.1 1.9-.1 3.2-.2v-3.4c-1.3.1-1.9.1-3.2.2v3.4zM1487.4 111.8c1.3-.1 1.9-.1 3.2-.2v-3.3c-1.3.1-1.9.1-3.2.2v3.3zM1509.3 116.7c1.3-.1 1.9-.1 3.2-.2v-3.4c-1.3.1-1.9.1-3.2.2v3.4zM1503.9 117.1c1.3-.1 1.9-.1 3.2-.2v-3.4c-1.3.1-1.9.1-3.2.2v3.4zM1498.4 117.4c1.3-.1 1.9-.1 3.2-.2v-3.4c-1.3.1-1.9.1-3.2.2v3.4zM1492.9 117.8c1.3-.1 1.9-.1 3.2-.2v-3.4c-1.3.1-1.9.1-3.2.2v3.4z"/><path class="st23" d="M1487.4 118.1c1.3-.1 1.9-.1 3.2-.2v-3.3c-1.3.1-1.9.1-3.2.2v3.3z"/><path class="st19" d="M1531.6 102c1.3-.1 1.9-.2 3.2-.3v-3.5c-1.3.1-1.9.2-3.2.3v3.5zM1526.1 102.5c1.3-.1 1.9-.2 3.2-.3v-3.5c-1.3.1-1.9.2-3.2.3v3.5z"/><path class="st24" d="M1520.6 102.9c1.3-.1 1.9-.2 3.2-.3v-3.4c-1.3.1-1.9.2-3.2.3v3.4z"/><path class="st19" d="M1515.1 103.3c1.3-.1 1.9-.2 3.2-.3v-3.4c-1.3.1-1.9.2-3.2.3v3.4zM1531.6 108.6c1.3-.1 1.9-.1 3.2-.2v-3.5c-1.3.1-1.9.2-3.2.3v3.4zM1526.1 109c1.3-.1 1.9-.1 3.2-.2v-3.5c-1.3.1-1.9.2-3.2.3v3.4zM1520.6 109.4c1.3-.1 1.9-.1 3.2-.2v-3.4c-1.3.1-1.9.2-3.2.2v3.4zM1515.1 109.8c1.3-.1 1.9-.1 3.2-.2v-3.4c-1.3.1-1.9.1-3.2.2v3.4zM1531.5 115.2c1.3-.1 1.9-.1 3.2-.2v-3.5c-1.3.1-1.9.1-3.2.2v3.5z"/><path class="st20" d="M1526.1 115.6c1.3-.1 1.9-.1 3.2-.2v-3.5c-1.3.1-1.9.1-3.2.2v3.5z"/><path class="st19" d="M1520.6 116c1.3-.1 1.9-.1 3.2-.2v-3.5c-1.3.1-1.9.1-3.2.2v3.5zM1515.1 116.3c1.3-.1 1.9-.1 3.2-.2v-3.4c-1.3.1-1.9.1-3.2.2v3.4zM1543 140.9c0 1.3 1 2.4 2.2 2.3 1.2 0 2.2-1.2 2.2-2.5s-1-2.4-2.2-2.3c-1.2.1-2.2 1.2-2.2 2.5z"/><path class="st18" d="M1568.6 167.4c0 11.5-.1 23.1-.1 34.6-10.4-.4-20.8-.7-31.2-1.1-.5 0-1-.3-1.4-.7-.6-.7-.9-1-1.4-1.6-.4-.4-.9-.7-1.4-.7-7.7-.2-11.5-.4-19.2-.6-.5 0-1 .2-1.4.6-.6.6-.9.9-1.4 1.5-.4.4-.9.6-1.4.6-10.2-.3-15.3-.5-25.6-.8-2.3-.1-4.1-2-4.1-4.3v-22.7c0-2.3 1.8-4.2 4.1-4.3 28.1-.1 56.3-.3 84.5-.5zM1484.1 203.7c28.1 1 56.2 2.1 84.3 3.2 0 11.3-.1 22.6-.1 33.9-10.4-.8-20.7-1.6-31.1-2.3-.5 0-1-.3-1.4-.7-.6-.7-.9-1-1.4-1.7-.4-.4-.9-.7-1.4-.7-7.6-.5-11.5-.8-19.1-1.3-.5 0-1 .2-1.4.5l-1.4 1.4c-.4.4-.9.5-1.4.5-10.2-.7-15.3-1-25.6-1.7-2.3-.1-4.1-2.1-4.1-4.5v-22.6c0-2.3 1.8-4.1 4.1-4zM1484.1 239.3c28.1 1.9 56.1 4.1 84.1 6.3 0 10.8-.1 21.7-.1 32.5-10.3-1-20.6-2.1-30.9-3.1-.5 0-1-.3-1.4-.7-.6-.7-.9-1-1.4-1.6-.4-.4-.9-.7-1.4-.7-7.6-.7-11.4-1.1-19.1-1.8-.5 0-1 .1-1.4.5-.6.5-.9.8-1.4 1.4-.4.4-.9.5-1.4.5-10.2-.9-15.3-1.4-25.6-2.2-2.3-.2-4.1-2.2-4.1-4.5v-22.5c0-2.5 1.9-4.2 4.1-4.1z"/><path class="st25" d="M1553 101.9c0 1.8 1.3 3.2 3 3.1 1.7-.1 3-1.7 3-3.6 0-1.8-1.3-3.2-3-3.1-1.6.1-3 1.7-3 3.6z"/><path class="st26" d="M1553.8 113.2c0 1.3 1 2.3 2.2 2.2 1.2-.1 2.2-1.2 2.2-2.6 0-1.3-1-2.3-2.2-2.2-1.2.2-2.2 1.3-2.2 2.6z"/><path class="st27" d="M1552.9 140.3c0 1.9 1.3 3.3 3 3.3 1.7-.1 3-1.6 3-3.5s-1.3-3.3-3-3.3c-1.6 0-3 1.6-3 3.5z"/><path class="st25" d="M1553.7 151.9c0 1.3 1 2.4 2.1 2.4 1.2 0 2.2-1.1 2.2-2.5s-1-2.4-2.1-2.4c-1.2.1-2.2 1.2-2.2 2.5z"/><path class="st26" d="M1552.8 179.2c0 1.9 1.3 3.4 3 3.4s3-1.5 3-3.4-1.3-3.4-3-3.4c-1.6 0-3 1.5-3 3.4z"/><path d="M1553.6 190.9c0 1.3 1 2.5 2.1 2.5 1.2 0 2.2-1 2.2-2.4 0-1.3-1-2.5-2.1-2.5s-2.2 1-2.2 2.4z" style="fill:none;stroke:#fff;stroke-width:1.0424;stroke-miterlimit:10"/><path class="st19" d="M1542.9 178.9c0 1.3 1 2.4 2.1 2.4 1.2 0 2.2-1.1 2.2-2.4 0-1.3-1-2.4-2.1-2.4-1.2 0-2.2 1.1-2.2 2.4z"/><path d="M1552.7 217.8c0 1.8 1.3 3.4 3 3.5 1.7.1 3-1.3 3-3.2 0-1.9-1.3-3.4-3-3.5-1.6 0-3 1.4-3 3.2z" style="fill:none;stroke:#f7dea4;stroke-width:.9581;stroke-miterlimit:10"/><path class="st26" d="M1553.5 229.3c0 1.3 1 2.4 2.1 2.5 1.2.1 2.1-.9 2.1-2.2 0-1.3-1-2.5-2.1-2.5-1.1-.1-2.1.9-2.1 2.2zM1552.6 255.6c0 1.8 1.3 3.4 3 3.5 1.6.1 3-1.2 3-3s-1.3-3.4-3-3.5c-1.6-.1-3 1.2-3 3z"/><path class="st27" d="M1553.4 266.7c0 1.3.9 2.4 2.1 2.5 1.2.1 2.1-.8 2.1-2.1s-.9-2.4-2.1-2.5c-1.1-.1-2.1.8-2.1 2.1z"/><path class="st37" d="M1509.3 177.7h3.2v-3.4h-3.2v3.4z"/><path class="st19" d="M1503.9 177.7h3.2v-3.4h-3.2v3.4zM1498.4 177.7h3.2v-3.4h-3.2v3.4zM1492.9 177.6h3.2v-3.4h-3.2v3.4z"/><path class="st20" d="M1487.4 177.6h3.2v-3.4h-3.2v3.4z"/><path class="st19" d="M1509.3 184.3h3.2v-3.4h-3.2v3.4zM1503.9 184.2h3.2v-3.4h-3.2v3.4z"/><path class="st38" d="M1498.4 184.1h3.2v-3.4h-3.2v3.4z"/><path class="st19" d="M1492.9 184h3.2v-3.4h-3.2v3.4zM1487.4 184h3.2v-3.4h-3.2v3.4zM1509.3 190.8c1.3 0 1.9 0 3.2.1v-3.4c-1.3 0-1.9 0-3.2-.1v3.4zM1503.9 190.7c1.3 0 1.9 0 3.2.1v-3.4c-1.3 0-1.9 0-3.2-.1v3.4zM1498.4 190.5c1.3 0 1.9 0 3.2.1v-3.4c-1.3 0-1.9 0-3.2-.1v3.4zM1492.9 190.4c1.3 0 1.9 0 3.2.1v-3.4c-1.3 0-1.9 0-3.2-.1v3.4zM1487.4 190.3c1.3 0 1.9 0 3.2.1V187c-1.3 0-1.9 0-3.2-.1v3.4zM1531.5 177.9h3.2v-3.5h-3.2v3.5zM1526 177.8h3.2v-3.5h-3.2v3.5zM1520.6 177.8h3.2v-3.5h-3.2v3.5zM1515.1 177.8h3.2v-3.5h-3.2v3.5zM1531.5 184.6h3.2v-3.5h-3.2v3.5zM1526 184.5h3.2V181h-3.2v3.5zM1520.6 184.4h3.2v-3.5h-3.2v3.5zM1515.1 184.3h3.2v-3.5h-3.2v3.5zM1531.4 191.3c1.3 0 1.9 0 3.2.1v-3.5c-1.3 0-1.9 0-3.2-.1.1 1.4.1 2.1 0 3.5zM1526 191.2c1.3 0 1.9 0 3.2.1v-3.5c-1.3 0-1.9 0-3.2-.1v3.5zM1520.5 191c1.3 0 1.9 0 3.2.1v-3.5c-1.3 0-1.9 0-3.2-.1.1 1.4.1 2.1 0 3.5zM1515.1 190.9c1.3 0 1.9 0 3.2.1v-3.5c-1.3 0-1.9 0-3.2-.1v3.5zM1509.3 214c1.3.1 1.9.1 3.2.2v-3.4c-1.3-.1-1.9-.1-3.2-.1v3.3zM1503.9 213.7c1.3.1 1.9.1 3.2.2v-3.4c-1.3-.1-1.9-.1-3.2-.1v3.3zM1498.4 213.5c1.3.1 1.9.1 3.2.2v-3.4c-1.3-.1-1.9-.1-3.2-.1v3.3z"/><path class="st39" d="M1492.9 213.2c1.3.1 1.9.1 3.2.1v-3.4c-1.3-.1-1.9-.1-3.2-.1v3.4z"/><path class="st19" d="M1487.5 213c1.3.1 1.9.1 3.2.1v-3.3c-1.3-.1-1.9-.1-3.2-.1v3.3zM1509.4 220.5c1.3.1 1.9.1 3.2.2v-3.4c-1.3-.1-1.9-.1-3.2-.2v3.4zM1503.9 220.2c1.3.1 1.9.1 3.2.2V217c-1.3-.1-1.9-.1-3.2-.2v3.4zM1498.4 219.9c1.3.1 1.9.1 3.2.2v-3.4c-1.3-.1-1.9-.1-3.2-.2v3.4zM1492.9 219.6c1.3.1 1.9.1 3.2.2v-3.4c-1.3-.1-1.9-.1-3.2-.2v3.4zM1487.5 219.3c1.3.1 1.9.1 3.2.2v-3.3c-1.3-.1-1.9-.1-3.2-.2v3.3z"/><path class="st38" d="M1509.4 226.9c1.3.1 1.9.1 3.2.2v-3.4c-1.3-.1-1.9-.1-3.2-.2v3.4z"/><path class="st19" d="M1503.9 226.6c1.3.1 1.9.1 3.2.2v-3.4c-1.3-.1-1.9-.1-3.2-.2v3.4zM1498.4 226.3c1.3.1 1.9.1 3.2.2v-3.4c-1.3-.1-1.9-.1-3.2-.2v3.4zM1493 226c1.3.1 1.9.1 3.2.2v-3.4c-1.3-.1-1.9-.1-3.2-.2v3.4z"/><path class="st21" d="M1487.5 225.6c1.3.1 1.9.1 3.2.2v-3.3c-1.3-.1-1.9-.1-3.2-.2v3.3z"/><path class="st19" d="M1531.4 215.1c1.3.1 1.9.1 3.2.2v-3.5c-1.3-.1-1.9-.1-3.2-.2v3.5zM1526 214.8c1.3.1 1.9.1 3.2.2v-3.5c-1.3-.1-1.9-.1-3.2-.1v3.4zM1520.5 214.5c1.3.1 1.9.1 3.2.2v-3.5c-1.3-.1-1.9-.1-3.2-.1v3.4zM1515.1 214.3c1.3.1 1.9.1 3.2.2v-3.4c-1.3-.1-1.9-.1-3.2-.1v3.3zM1531.4 221.7c1.3.1 1.9.1 3.2.2v-3.5c-1.3-.1-1.9-.1-3.2-.2v3.5zM1526 221.4c1.3.1 1.9.1 3.2.2v-3.5c-1.3-.1-1.9-.1-3.2-.2v3.5zM1520.5 221.1c1.3.1 1.9.1 3.2.2v-3.5c-1.3-.1-1.9-.1-3.2-.2v3.5zM1515.1 220.8c1.3.1 1.9.1 3.2.2v-3.4c-1.3-.1-1.9-.1-3.2-.2v3.4zM1531.4 228.3c1.3.1 1.9.1 3.2.2V225c-1.3-.1-1.9-.1-3.2-.2v3.5zM1526 228c1.3.1 1.9.1 3.2.2v-3.5c-1.3-.1-1.9-.1-3.2-.2v3.5zM1520.5 227.6c1.3.1 1.9.1 3.2.2v-3.4c-1.3-.1-1.9-.1-3.2-.2v3.4zM1515.1 227.3c1.3.1 1.9.1 3.2.2v-3.4c-1.3-.1-1.9-.1-3.2-.2v3.4z"/><path class="st21" d="M1509.4 251c1.3.1 1.9.2 3.2.3v-3.4c-1.3-.1-1.9-.2-3.2-.3v3.4z"/><path class="st19" d="M1503.9 250.5c1.3.1 1.9.2 3.2.3v-3.4c-1.3-.1-1.9-.1-3.2-.2v3.3zM1498.4 250.1c1.3.1 1.9.1 3.2.2V247c-1.3-.1-1.9-.1-3.2-.2v3.3zM1493 249.7c1.3.1 1.9.1 3.2.2v-3.3c-1.3-.1-1.9-.1-3.2-.2v3.3zM1487.5 249.3c1.3.1 1.9.1 3.2.2v-3.3c-1.3-.1-1.9-.1-3.2-.2v3.3zM1509.4 257.3c1.3.1 1.9.2 3.2.3v-3.4c-1.3-.1-1.9-.2-3.2-.3v3.4zM1503.9 256.9c1.3.1 1.9.2 3.2.3v-3.3c-1.3-.1-1.9-.2-3.2-.3v3.3zM1498.4 256.4c1.3.1 1.9.2 3.2.3v-3.3c-1.3-.1-1.9-.2-3.2-.3v3.3zM1493 256c1.3.1 1.9.2 3.2.3V253c-1.3-.1-1.9-.2-3.2-.2v3.2zM1487.5 255.6c1.3.1 1.9.1 3.2.2v-3.3c-1.3-.1-1.9-.1-3.2-.2v3.3zM1509.4 263.7c1.3.1 1.9.2 3.2.3v-3.3c-1.3-.1-1.9-.2-3.2-.3v3.3zM1503.9 263.2c1.3.1 1.9.2 3.2.3v-3.3c-1.3-.1-1.9-.2-3.2-.3v3.3zM1498.4 262.7c1.3.1 1.9.2 3.2.3v-3.3c-1.3-.1-1.9-.2-3.2-.3v3.3zM1493 262.3c1.3.1 1.9.2 3.2.3v-3.3c-1.3-.1-1.9-.2-3.2-.3v3.3zM1487.5 261.8c1.3.1 1.9.2 3.2.3v-3.3c-1.3-.1-1.9-.2-3.2-.3v3.3zM1531.4 252.8c1.3.1 1.9.2 3.2.3v-3.4c-1.3-.1-1.9-.2-3.2-.3v3.4zM1525.9 252.3c1.3.1 1.9.2 3.2.3v-3.4c-1.3-.1-1.9-.2-3.2-.3v3.4zM1520.5 251.9c1.3.1 1.9.2 3.2.3v-3.4c-1.3-.1-1.9-.2-3.2-.3v3.4zM1515.1 251.4c1.3.1 1.9.2 3.2.3v-3.4c-1.3-.1-1.9-.2-3.2-.3v3.4zM1531.4 259.2c1.3.1 1.9.2 3.2.3v-3.4c-1.3-.1-1.9-.2-3.2-.3v3.4zM1525.9 258.8c1.3.1 1.9.2 3.2.3v-3.4c-1.3-.1-1.9-.2-3.2-.3v3.4zM1520.5 258.3c1.3.1 1.9.2 3.2.3v-3.4c-1.3-.1-1.9-.2-3.2-.3v3.4zM1515.1 257.8c1.3.1 1.9.2 3.2.3v-3.4c-1.3-.1-1.9-.2-3.2-.3v3.4zM1531.4 265.7c1.3.1 1.9.2 3.2.3v-3.4c-1.3-.1-1.9-.2-3.2-.3v3.4zM1525.9 265.2c1.3.1 1.9.2 3.2.3v-3.4c-1.3-.1-1.9-.2-3.2-.3v3.4zM1520.5 264.7c1.3.1 1.9.2 3.2.3v-3.4c-1.3-.1-1.9-.2-3.2-.3v3.4z"/><path class="st24" d="M1515.1 264.2c1.3.1 1.9.2 3.2.3v-3.3c-1.3-.1-1.9-.2-3.2-.3v3.3z"/><path d="M1545.1 178.9c-5.4 0-10.3 6.3-10.3 16.8 0 30.3 0 60.9-.1 90.7" style="fill:none;stroke:#6a95e3;stroke-width:2.0848;stroke-linecap:round;stroke-linejoin:round;stroke-miterlimit:10"/><path d="M1545.2 140.8c-11 0-19.1 7.6-19.1 19.7 0 27.4-1.2 95.5-1.7 124.3-.2 8.8-17.2 4.7-6 12.1 12.7 8.4-25.3 6.6-55.2 2.3" style="fill:none;stroke:#f79f6e;stroke-width:2.0848;stroke-linecap:round;stroke-linejoin:round;stroke-miterlimit:10"/><g class="st13"><linearGradient id="SVGID_4_" gradientUnits="userSpaceOnUse" x1="1202.574" y1="701.11" x2="1199.838" y2="735.681" gradientTransform="matrix(1 -.00133 -.00133 .919 -5.994 -364.445)"><stop offset="0" style="stop-color:#2155c8"/><stop offset=".049" style="stop-color:#2155c8;stop-opacity:.951"/><stop offset="1" style="stop-color:#2155c8;stop-opacity:0"/></linearGradient><path style="fill:url(#SVGID_4_)" d="m1199 276.6-276.9 24.7 435.4 35 107.5-34.2-151.9-15.6z"/></g><path class="st43" d="m1232.3 247.5-8.1-.5-7.7-.5v-6.1l5.8.4h.1l9.9-2.4-.1-9.6-23.7-1-10.2 2 .5 47 7.9.8 10.1-3.2-.1-14.9 5.8.5 9.9-2.9z"/><path class="st20" d="m1206.4 268.2.1 9.2-7.5-.8-.1-9.1zM1206.4 258.7v9.2l-7.5-.6-.1-9.2zM1222.2 250.4l.1 9.3-7.8-.6-.1-9.3zM1206.3 249.3l.1 9.2-7.6-.6-.1-9.1zM1206.2 239.8l.1 9.3-7.6-.6-.1-9.1zM1206.1 230.4l.1 9.2-7.6-.4-.1-9.2zM1214.2 249.8l.1 9.3-7.8-.6v-9.2zM1214 230.8l.1 9.3-7.7-.5-.1-9.2zM1222.1 231.2l.1 9.3-7.9-.4-.1-9.3z"/><path class="st37" d="m1248.8 217.4 8.4-1.6-.3-29.1h-8.5l-.1-9.5-16.6.2-9.9.7.1 8.8-8.1.8.3 28.8 8.1.3.1 9.6 16.8.7 9.7-2v-7.7zm-16.7-29.4h6.5l.3 27.1-6.5-.2-.3-26.9z"/><path class="st21" d="m1230.5 217.1.1 9.5-8-.3-.1-9.4zM1222.2 207.3l.1 9.3-7.9-.2-.1-9.3zM1222.1 197.6l.1 9.4-7.9-.1-.1-9.3zM1222 188l.1 9.4-7.9-.1-.1-9.3zM1230.2 178.3v9.5h-8l-.1-9.4zM1238.9 217.4l.1 9.5-8.2-.3-.1-9.5zM1238.6 178.2l.1 9.6h-8.3v-9.5zM1247.4 207.8l.1 9.6-8.4-.3-.1-9.5zM1247.3 197.9l.1 9.6-8.4-.1-.1-9.6zM1247.2 188l.1 9.7-8.4-.1V188z"/><path class="st22" d="m1270.5 269.3-.3-29.4-8.8-.5-.1-9.6-17.1-.7-9.7 2.1.1 7.3-8.3 2 .3 29.2 8.4.7.1 9.7 17.4 1.7v-.3.3l9.5-3.5-.1-5.8 8.6-3.2zm-18.6-27.2zm-.1 0 .2 25.5-7.2-.6-.2-25.3 7.2.4zm.1 0v-.2.2z"/><path class="st38" d="M1243 231.8v9.6l-8.2-.5-.1-9.5zM1251.6 232.2l.1 9.7-8.4-.5-.1-9.6zM1234.7 260.6l.1 9.5-8.1-.7-.1-9.4zM1234.7 250.9v9.5l-8.1-.6-.1-9.5zM1234.6 241.1l.1 9.5-8.2-.5-.1-9.4zM1243.4 271.1l.1 9.6-8.3-.8-.1-9.5zM1252.1 271.9v9.6l-8.4-.8-.1-9.6zM1260.8 262.6l.1 9.8-8.6-.8-.1-9.6zM1260.7 252.6l.1 9.8-8.6-.7-.1-9.7zM1260.6 242.6l.1 9.8-8.6-.6-.1-9.7z"/><path class="st44" d="m1285.1 122.4-9.1-.8-18.4 1.2v1.3l-8.6-.7-17.3 1.2.5 48.8 8.6-.1 9.7-.6-.2-19.3 16.6-.4.2 19.9 9.4-.2 9.1-.6z"/><path class="st24" d="m1240.5 163.5.1 9.6-8.2.1-.1-9.5zM1240.5 153.7v9.6l-8.2.2-.1-9.5zM1240.4 143.9l.1 9.6-8.3.3-.1-9.5zM1240.3 134.1l.1 9.5-8.3.4-.1-9.5zM1240.2 124.3l.1 9.5-8.3.5-.1-9.5zM1248.8 123.7l.1 9.6-8.4.5-.1-9.6zM1257.8 143.1l.1 9.7-8.6.3-.1-9.6zM1257.7 133.1l.1 9.7-8.6.4-.1-9.6zM1266.6 122.5l.1 9.8-8.8.5-.1-9.7zM1276.1 162.6l.1 9.9-8.9.1-.1-9.8zM1276 152.4l.1 9.9-8.9.3-.1-9.9zM1275.9 142.2l.1 9.9-8.9.4-.1-9.9zM1275.9 132v10l-8.9.4-.1-9.8zM1275.8 121.9v9.9l-8.9.5-.1-9.8z"/><path class="st22" d="m1284.6 68-9.2-2.3c-4.6.6-13.8 1.7-18.4 2.3v3l-8.6-2c-4.3.5-13 1.6-17.3 2.2.1 12.2.5 48.6.5 48.9l9.8.8 8.5-.6c-.1-5.7-.1-15.4-.2-21.1l8.3 1.2 8.2-.7c0 4.3.1 13.5.2 17.9l9.3.9 9.3-.7c.1-.1-.3-37.4-.4-49.8zm-17.9 49.2z"/><path class="st38" d="m1240 109.5.1 9.6-8.2.6-.1-9.5zM1240 99.7v9.6l-8.2.7-.1-9.5zM1239.9 89.9l.1 9.6-8.3.8-.1-9.5zM1239.8 80.1l.1 9.6-8.3.8-.1-9.4zM1239.7 70.3l.1 9.6-8.3.9-.1-9.5zM1248.3 69.2l.1 9.7-8.4 1-.1-9.6zM1257.3 88.1l.1 9.8-8.6.8-.1-9.7zM1257.2 78.1l.1 9.8-8.6.9-.1-9.7zM1266.1 67v9.9l-8.7 1-.1-9.8zM1275.6 106.6l.1 9.9-9 .7v-9.9zM1275.5 96.4l.1 10-8.9.7-.1-9.9zM1275.4 86.2l.1 10-8.9.8-.1-9.8zM1275.3 76.1l.1 9.9-8.9.9-.1-9.8zM1275.2 65.9l.1 9.9-8.9 1-.1-9.8z"/><path class="st22" d="m1297.7 227-.5-50.3-9.5.1-9.1.8.1 9.1-8.7.1-.1-9.8-8.9.1-9.5.8.5 49.8 9 .4 9.4-2.1-.2-17.8 8.7.2.2 20.4 9.7.4z"/><path class="st38" d="m1260.7 218 .1 9.8-8.6-.3-.1-9.7zM1260.6 208l.1 9.8-8.6-.3-.1-9.6zM1260.5 198l.1 9.8-8.6-.2-.1-9.7zM1260.4 188l.1 9.8-8.6-.1-.1-9.7zM1260.3 178l.1 9.8h-8.6l-.1-9.7zM1269.5 188l.1 9.9-8.9-.1V188zM1288.4 218.9l.1 10-9.2-.3-.1-10zM1278.8 198.2l.1 9.9-9-.1-.1-9.9zM1288.3 208.6l.1 10-9.2-.2-.1-10zM1288.2 198.3l.1 10-9.2-.1-.1-10zM1288.1 188l.1 10h-9.2l-.1-10zM1288 177.7l.1 10-9.2.1-.1-10z"/><path class="st45" d="m1311.9 262.7-9.6-.7-.1-6.3.9.1 8.7-3-.2-20.5-37.4-1.6-9.3 2.3.5 50.5 9.4.9 9.1-3.7-.1-15.9h.1l9.3.7.2 20.7 10 1 8.7-3.9-.2-20.6zm-28.2-11.9-.1-6.5h.1l9.3.5.1 6.6-9.4-.6zm19.5 36z"/><path class="st46" d="m1274.5 274.1.1 9.9-8.9-.8-.1-9.8zM1303.1 276.6l.1 10.2-9.5-.9-.1-10.1zM1293.1 255.1l.1 10.1-9.3-.7-.1-10zM1302.8 245.3l.1 10.2-9.5-.6-.1-10.1zM1274.4 264l.1 9.9-8.9-.8-.1-9.8zM1274.3 253.9l.1 9.9-8.9-.7-.1-9.8zM1274.2 243.7l.1 9.9-8.9-.6-.1-9.8zM1274.1 233.6l.1 9.9-8.9-.5-.1-9.8zM1283.6 254.5l.1 10-9.1-.7-.1-9.9zM1283.4 234l.1 10-9.1-.5-.1-9.9zM1293 234.4v10.1l-9.3-.5-.1-10zM1303 266.2l.1 10.2-9.5-.9-.1-10.1zM1302.7 234.9l.1 10.1-9.5-.5-.1-10.1z"/><path class="st45" d="m1328.6 161.1-.3-31.2-8.4-.6-1.6.1-.1-9.1-8.6-.9-19.8 1.3.1 10.3-9.5.5.3 30.9 9.5-.2.1 10.3 19.8-.3 8.6-.6-.1-10.1h1.6l8.4-.4zm-29.3-9.3-.1-10-.1-10 9.3-.5h.2l.9-.1.1 9.2v.3l.1 10.3v.3l.1 10.2h-1.2l-9.3.2v-9.9zm10.8 9.8v-.2h-.2.2v.2z"/><path class="st46" d="m1290.2 151.9.1 10-9.3.3-.1-10zM1290.1 141.6l.1 10-9.3.4-.1-10zM1290 131.2l.1 10.1-9.3.4-.1-9.9zM1299.6 120.3l.1 10.1-9.5.6-.1-10.1zM1300 161.9l.1 10.2-9.5.2-.1-10.1zM1309.9 161.7l.1 10.2-9.7.2-.1-10.2zM1309.5 119.6l.1 10.3-9.7.5-.1-10.1zM1319.9 150.8l.1 10.4-9.9.2-.1-10.2zM1319.8 140.2l.1 10.3-9.9.4-.1-10.3zM1319.7 129.6l.1 10.3-9.9.5-.1-10.3z"/><path class="st44" d="m1327.8 73.1-8.4-2.3-1.6.2-.1-7-8.6-2.5-19.8 2.4.1 10.3-9.5 1.1.4 41.1 9.1.9 9.5-.7-.1-10.3-.1-9.8 10.5-.9.1 8.1.1 10.5 8.6 1 10.2-.7-.4-41.4zm-46.2 33zm17.6-22.3zm8.7-8.3h.2l.9-.1.1 7.1-9.9 1-.6.1-.1-7 9.4-1.1z"/><path class="st24" d="M1289.8 105.4v10.1l-9.2.7-.1-10zM1289.7 95.1v10.1l-9.2.7-.1-9.9zM1289.6 84.8l.1 10.1-9.3.8-.1-10zM1289.5 74.5l.1 10-9.3 1-.1-10zM1309.1 82.8l.1 10.2-9.6.9-.1-10.1zM1308.9 61.7l.1 10.3-9.6 1.1-.1-10.2zM1299.2 83.8l.1 10.2-9.4.8-.1-10zM1299 63l.1 10.1-9.4 1.1-.1-10.1zM1309.4 82.8l.1 10.2 9.9-.9-.1-10.4zM1319.5 103l.1 10.4-9.9.7-.1-10.3zM1319.4 92.4l.1 10.3-9.9.8-.1-10.2zM1319.2 71.1l.1 10.4-9.9 1-.1-10.3z"/><path class="st44" d="m1331.7 217.7-19.8-.6-.4-40.6-9.8.1-8.9.8.5 52 30.2 1.2 8.3-2.4z"/><path class="st24" d="m1302.9 208.9.1 10.2-9.5-.3-.1-10.1zM1312.9 219.6l.1 10.3-9.7-.4-.1-10.2zM1303 219.3l.1 10.2-9.5-.4-.1-10.1zM1302.8 198.4l.1 10.2-9.5-.2-.1-10.1zM1302.7 188l.1 10.2-9.5-.1-.1-10.1zM1302.6 177.5l.1 10.2h-9.5l-.1-10.1zM1323.1 219.9l.1 10.4-9.9-.4-.1-10.3z"/><path class="st37" d="m1325.2 70.4-.7-.2h-.2l.6.2z"/><path class="st22" d="m1346.7 176.1-10.5.1-8.3.8.5 53.7 10.8.5 8-2.4z"/><path class="st38" d="m1338.9 220.4.1 10.5-10.3-.4-.1-10.4zM1338.8 209.6l.1 10.5-10.3-.3-.1-10.4zM1338.7 198.7l.1 10.6-10.3-.2-.1-10.4zM1338.6 187.9l.1 10.6-10.3-.1-.1-10.4zM1338.5 177.1l.1 10.6h-10.3l-.1-10.4z"/><path class="st37" d="m1357.8 276.5-20.9-1.7-.4-41.5-10.4-.5-8.4 2.5.5 53.2 31.9 3 7.8-4.2z"/><path class="st21" d="m1328.4 278.8.1 10.4-10-1-.1-10.3zM1328.3 268.1l.1 10.4-10-.8-.1-10.4zM1339 279.6l.1 10.6-10.3-1-.1-10.4zM1328.2 257.4l.1 10.4-10-.7-.1-10.4zM1328.1 246.7l.1 10.4-10-.6-.1-10.4zM1328 236l.1 10.4-10-.5-.1-10.4zM1349.8 280.6l.1 10.6-10.6-1-.1-10.5z"/><path class="st37" d="m1375.3 63.3-7.5-2.8-3.6.4v-6.7l11-1.4-.2-21.8-7.5-3.9-11.5 1.8.2 21.9-13.3 1.8-.2-16.9-8.1-3.6-10.7 1.6.5 53.7 8.3 2 10.5-1.1-.2-20.9 13.4-1.6.1 18.3 7.7 2.2 11.3-1.1z"/><path class="st21" d="m1334.8 75.5.1 10.5-10.3 1.1-.1-10.4zM1334.3 32.4l.1 10.5-10.2 1.5-.1-10.5zM1334.7 64.7l.1 10.6-10.3 1.1-.1-10.4zM1334.6 54l.1 10.5-10.3 1.2-.1-10.4zM1334.4 43.2l.1 10.5-10.2 1.3-.1-10.4zM1345.3 52.5l.1 10.7-10.5 1.2-.1-10.5zM1356.2 51.1l.1 10.7-10.7 1.3-.1-10.6zM1367.8 82.7l-.1-10.8-11 1.2.1 10.7zM1367.6 60.8l.1 10.8-11 1.2-.1-10.7zM1367.2 27.4l.1 10.9-10.9 1.5-.1-10.7zM1367.3 38.5l.2 10.9-11 1.4-.1-10.7z"/><path class="st22" d="M1376.2 148.8h-7.4l-3.6.1-.1-10.1 11-.5-.2-21.8-7.4-1.1-43.7 2.9.5 53.6 10.7-.2 8.1-.6-.2-20.9 13.4-.5.2 21.7 11.5-.2v-.3.3l7.4-.6-.2-21.8zm-32.4-10-.1-9.5 13.4-.7.1 9.6-13.4.6z"/><path class="st38" d="m1335.6 161 .1 10.5-10.2.2-.1-10.4zM1335.5 150.2l.1 10.5-10.2.3-.1-10.4zM1335.4 139.5l.1 10.5-10.2.3-.1-10.4zM1335.3 128.7l.1 10.5-10.2.5-.1-10.4zM1335.2 117.9l.1 10.5-10.2.6-.1-10.4zM1346.2 139l.1 10.6-10.5.4-.1-10.6zM1346 117.2l.1 10.6-10.5.6-.1-10.5zM1357 127.2l-10.7.6-.1-10.6 10.7-.7zM1357.1 138.5l.1 10.7-10.7.4-.1-10.7zM1368.3 126.8l.1 10.9-11 .5-.1-10.8zM1368.6 160.1l.1 10.9-11 .2-.1-10.8zM1368.5 149l.1 10.9-11 .3-.1-10.8zM1368.2 115.7l.1 10.9-11 .6-.1-10.8z"/><path class="st44" d="m1396.8 279.5-22.7-1.8v-6.3l15.7 1.2 6.9-3.8-.1-11.2-22.7-1.3v-7.1l15.7.8 6.9-3.1-.1-11.2-33.9-1.4-7.7 2.6.6 55.1 34.6 3.2 6.9-4.5z"/><path class="st45" d="m1396.3 175.5-11.7.1-7.2.8.2 20.9h-3.7l-.1-10.8-11 .1-.1-10.7-11 .1-7.9.8.5 54.6 11.2.4 7.7-2.4-.3-30.4h3.2l.1 11.1 11.5.2.2 22.4 12 .4 6.9-2.5z"/><path class="st46" d="m1354.7 177 .1 10.7h-10.6l-.1-10.6zM1355.2 220.8l.1 10.7-10.7-.4-.1-10.6zM1355.1 209.9l.1 10.7-10.7-.3-.1-10.6zM1355 198.9l.1 10.7-10.7-.2-.1-10.6zM1354.8 187.9l.2 10.7-10.7-.1-.1-10.6zM1377.6 199.1l.1 10.9-11.2-.2-.1-10.8zM1366 187.9l.1 10.8-10.9-.1-.1-10.7zM1389.5 221.8l.1 11-11.4-.4-.1-10.9zM1389.4 210.5l.1 11-11.4-.3-.1-10.9zM1389.3 199.2l.1 11-11.4-.2-.1-10.9zM1389.2 187.9l.1 11-11.4-.1-.2-10.9zM1389.1 176.6l.1 11h-11.5l-.1-10.9z"/><path class="st37" d="m1416.9 158.5-23.7.6-.1-10.6 23.6-.9-.1-11.4-6.4-.5-17.2.8-.1-9.9 23.6-1.3-.1-11.4-6.5-1.2-36 2.4.5 56.1 36.1-.6 6.5-.7z"/><path class="st43" d="m1416.3 97.1-6.5-1.7-17.2 1.3v-8.5l11.3-1h.3l12-1-.2-11.5-6.4-2.4-17.2 1.7-.1-7.6 23.6-2.5-.1-11.5-6.5-3.1-36 4.3.5 56.1 7.3 1.2 35.3-2.4z"/><path class="st20" d="m1396.9 62.2-11.6 1.2-.1-11 11.6-1.4zM1385 63.7l.1 11.1-11.3 1.1-.1-10.9zM1385.3 97.6l.1 11-11.3.8-.1-10.9zM1385.2 86.3l.1 11-11.3.9-.1-10.9zM1385.1 75l.1 11-11.3 1.1-.1-10.9zM1384.9 52.5l.1 11-11.3 1.2-.1-10.9zM1397.3 96.6l.1 11.2-11.7.8-.1-11zM1409.3 72.6l.1 11.3-12 1-.1-11.1zM1397 73.8l.2 11.2-11.7 1-.1-11zM1409.5 95.7l.1 11.2-11.9.8-.1-11.1zM1409 49.6l.1 11.2-11.9 1.3-.1-11.1z"/><path class="st22" d="m1439.2 283.1-.2-11.4-.1-11.6-24.6-1.5-.1-7.3 18.7.9 5.9-3.2-.1-11.6-24.9-1-6.5 2.8v8l-5.3-.3-6.8 3.1.3 23 24.6 1.8v6.5l-17.7-1.3-6.8 4.1.1 11.6 24.9 2.3 6.2-4.7-.1-6.4 6.6.5z"/><path class="st38" d="m1420.2 286.4.1 11.3-12.2-1.1-.1-11.2zM1432.8 275.7l.1 11.4-12.4-1-.1-11.3zM1407.4 250.9l.1 11.2-11.9-.7-.1-11.1zM1407.7 285.3l.1 11.2-11.8-1-.2-11.1zM1407.5 262.4l.1 11.2-11.9-.9-.1-11zM1420 263.2l.1 11.3-12.2-.9-.1-11.2zM1419.8 251.3l-12.1-.6-.1-11.2 12.1.5zM1432.7 264l.1 11.4-12.4-.9-.1-11.3zM1432.5 240.5l.1 11.5-12.5-.7-.1-11.3z"/><path class="st43" d="m1439.1 220.4-24.6-.6-.1-8.9 18.7.4 5.9-2-.1-11.6-24.7-.2-.1-9.7h18.8l5.9-1.2-.1-11.6-36.8.4-6.9.8.6 57.1 37.7 1.4 5.9-2.7z"/><path class="st20" d="m1407.6 222.3.2 11.2-11.9-.4-.1-11.1zM1407.5 210.8l.1 11.2-11.8-.3-.1-11.1zM1407.3 187.8l.1 11.3-11.8-.1-.2-11.1zM1407.4 199.3l.1 11.2-11.8-.2-.1-11.1zM1407.2 176.4l.1 11.2h-11.9l-.1-11.1zM1420.1 222.6l.1 11.4-12.1-.5-.2-11.2zM1419.9 199.4l.1 11.4-12.2-.3-.1-11.2zM1419.7 176.2l.1 11.3-12.2.1-.1-11.2zM1432.9 223l.1 11.4-12.5-.4-.1-11.4zM1432.7 199.5l.1 11.5-12.5-.2-.1-11.4zM1432.4 176.1l.2 11.4h-12.5l-.1-11.3z"/><path class="st37" d="m1483.5 286.5-.2-23.8-26.9-1.5v-7.7l22.2 1.2 4.6-3.5-.1-12-27.2-1.1-5.4 2.9.1 8.4-7.5-.4-5.7 3.3.2 23.8 26.9 1.9v6.8l-21.1-1.6-5.7 4.4.1 12.1 27.2 2.4 5.1-4.9-.1-6.7 8.9.7z"/><path class="st21" d="m1464.6 290.1.1 11.7-13.3-1.2-.1-11.6zM1464.4 266l.1 11.7-13.3-.9-.1-11.6zM1478.5 279l.1 11.9-13.7-1.1-.1-11.8zM1478.3 266.8l.2 11.9-13.7-.9-.1-11.8zM1451 289l.1 11.6-13-1.2-.1-11.5zM1450.7 265.2l.2 11.6-13-.9-.1-11.5zM1450.6 253.2l.1 11.7-12.9-.8-.1-11.5zM1464.1 241.9l.1 11.8-13.3-.7-.1-11.6zM1478.1 242.5l.1 11.9-13.6-.7-.1-11.8zM1385.9 159.7l.1 11-11.3.2-.1-10.9zM1385.8 148.4l.1 11-11.3.3-.1-10.9zM1385.7 137.1l.1 11-11.3.5-.1-10.9zM1385.6 125.9l.1 11-11.3.5-.2-10.9zM1385.5 114.6l.1 11-11.4.6-.1-10.9zM1397.9 159.4l.1 11.1-11.7.2-.1-11zM1397.4 113.8l.1 11.1-11.6.7-.1-11zM1397.6 136.6l.2 11.1-11.7.4-.1-11zM1410.1 159.1l.1 11.2-11.9.2-.1-11.1zM1409.9 136l.1 11.3-12 .4-.1-11.1zM1409.7 113l.1 11.2-12 .7-.1-11.1z"/><path class="st24" d="m1366.3 270.9.1 10.8-10.9-.9-.1-10.7zM1389.4 261.3l.1 11-11.5-.8-.1-11zM1377.4 238.2l.1 10.9-11.1-.6-.1-10.8zM1366.4 281.9l.1 10.8-10.9-1-.1-10.7zM1366.2 259.8l.1 10.8-10.9-.8-.1-10.7zM1366.1 248.7l.1 10.8-10.9-.7-.1-10.6zM1366 237.7l.1 10.8-10.9-.6-.1-10.7zM1377.9 282.9l.1 10.9-11.2-1-.1-10.8zM1377.7 260.5l.1 10.9-11.2-.8-.1-10.8zM1389.6 283.9l.1 11-11.4-1.1-.2-10.9zM1389.2 238.7l.1 11-11.5-.6-.1-10.9z"/><path class="st43" d="m1481.8 24-5.7-3-10.5 1.5V33l6.2 1.4 10.5-.7z"/><path class="st20" d="m1476.1 21 .1 10.7-10.6 1.3V22.4z"/><path class="st22" d="m1538 48.2-5.9-3-10.7 1.4.1 10.5 6.3 1.5 10.6-.8z"/><path class="st38" d="m1532.1 45.2.1 10.7-10.7 1.2-.1-10.6z"/><path class="st45" d="m1160.7 236.2-7 2.5-8-1 .1-8.5 6.8-1.9 8.4.3z"/><path class="st46" d="M1153.7 238.7v-9.2l-7.9-.3-.1 9z"/><path class="st37" d="m1215.1 42.2-7.1-2.5-9 1.7-.3 8.8 5.3 1.5 11-1z"/><path class="st21" d="M1208 39.7v9.5l-9.3 1v-8.9z"/><linearGradient id="SVGID_5_" gradientUnits="userSpaceOnUse" x1="464.041" y1="764.999" x2="475.601" y2="700.978" gradientTransform="matrix(1 -.00133 -.00133 .919 -5.994 -364.445)"><stop offset="0" style="stop-color:#09084d;stop-opacity:0"/><stop offset="1" style="stop-color:#09084d"/></linearGradient><path style="fill:url(#SVGID_5_)" d="m527.7 308.4-207.8 16.2 57 16.1 45.6 20.4 177.2-38.3z"/><path class="st48" d="M559.5 168.7s7.4 1.5 15.4-7.8c1.5-1.8-2.9.4-6 2.4-3.1 1.9 1.2-.5 4-2.1 3.9-2.3 2.1-5.4-.5-4-2.6 1.4-.1-.7 2.6-3.1 2-1.8 4.6-3.6 4-4.3-1.8-1.8-3.4-.5-8.9 2.2-2.1 1-6.2-1.9-6.1 4.1 0 2 4.1-1 5.6-1.6 1.5-.6 10-5.3 6.5-8.6-1.4.4-9.3 4.8-13.8 6.7-5.2 2.2-9.3 9.6-12.1 11.2-2.8 1.6 1.6 3.6 1.6 3.6s3.5 2 7.7 1.3z"/><path class="st49" d="M519.8 174.2s14.8-6.3 24.2-10.5c0 0-2 1.7-1.3 1.3 2.5-1.1 7.9-4.7 8.6-5 3.4-1.1 5-.3 5-.3l-3 1.5s3.6.3 5.4-.7c1.8-1 1.4-.6-.2 2.6-1.6 3.2-26 20.7-26 20.7l-12.7-9.6z"/><path d="M466.6 136.7s.7 2.2 2.4 4.6c.4.5 2.6 4.2 8.1 5.8 0 0 4.8.9 5.1 4.4.3 3.5 6.6 10.2 10.2 13l-8.7-3.1s6.2 7.5 11.2 9l-8.6-1.7s6 9 13.3 6.5c0 0-1.8 3.1-4.5 3.5 0 0 5.2-.8 12.1 1 6.9 1.8 12.3 3.8 16.2 1.8 3.9-2 5.6-4.6 5.6-4.6l-1.6 4.4s5-6.1 7.6-7.9-3.3 3.1-2.8 5.1c.5 2 11.1-6.5 12.7-10.6s-.3 4.5-1.2 5.8c-1 1.3 6.2-8.7 10.9-10.1 4.7-1.4 8.1-1.2 8.1-1.2l-2.5 2s2.1 1.5 4.5-.5-.7 2.7-2.2 3.2c-1.6.5 3.1 1.9 4.9-.4 1.8-2.3-4 7.8-13.5 12.7-9 4.5-15 7.8-20.2 8.1-5.2.2-7.6-.3-7.6-.3l7.5 2.7s-7.4 3-16.8 2.5-19.6-2-25.9-5.5l2.7 3.8s-17.5-6.7-21.7-21.2l-.6 4.5c-.3.1-14-27.2-4.7-37.3z" style="fill:#c2e7f5"/><path class="st5" d="M486.7 165.9s7.3 6.5 9.8 6.9c2.6.4-.3 1-2 1.4-1.7.4-6.6-5.2-7.8-8.3z"/><path class="st51" d="M597.7 173.6c5.9-2.3 7.2-19.1 3.1-21-3.4-1.6-5-.4-10.3-2.2-5.4-1.8-5-3.1-8.6-4.4-5-1.7-17.6 13.6-13.7 16.5 3.9 2.9 11.5-2.7 11.5-2.7l13.7 4.7c-.1 0-3.4 12.1 4.3 9.1z"/><path class="st52" d="m579.6 159.9 1.5-1.1c.7-.5 1.6-.7 2.4-.4l7.7 2.8c.8.3 1.4 1 1.5 1.9l.2 1.7-13.3-4.9z"/><ellipse transform="rotate(-43.995 596.095 159.169)" class="st53" cx="596" cy="159.2" rx="2.6" ry="2.5"/><ellipse transform="rotate(-43.995 595.883 157.76)" class="st52" cx="595.8" cy="157.8" rx="2.2" ry="2"/><ellipse transform="rotate(-43.995 581.808 153.486)" class="st53" cx="581.8" cy="153.5" rx="2.6" ry="2.5"/><ellipse transform="rotate(-43.995 581.586 152.077)" class="st52" cx="581.5" cy="152.1" rx="2.2" ry="2"/><ellipse transform="rotate(-43.995 589.676 153.39)" class="st54" cx="589.6" cy="153.4" rx="1.1" ry="1"/><ellipse transform="rotate(-43.995 588.08 156.786)" class="st55" cx="588" cy="156.8" rx="1.1" ry="1"/><ellipse transform="rotate(-43.995 586.462 154.28)" class="st56" cx="586.4" cy="154.3" rx="1.1" ry="1"/><ellipse transform="rotate(-43.995 591.34 156.148)" class="st57" cx="591.3" cy="156.2" rx="1.1" ry="1"/><path class="st58" d="M692.5 271.3c3.7 1.5 5.3 5.6 3.9 8.7-1.4 3.1-4.9 5.1-8.5 6.5-3.6 1.4-7.5 2.3-10.9 4-4.1 2.1-7.2 5.3-9.9 8.6-1.3 1.6-2.6 3.3-4.5 4.4-2.9 1.7-7.2 1.7-10.3 0-1-.5-1.9-1.2-2.2-2.1-.7-1.7.7-3.3 2-4.6 8.3-8.2 16.8-16.5 27.6-22.4 0 .1 6.1-5.8 12.8-3.1z"/><path class="st59" d="M684.4 272.9c.4.2.9.1 1.4 0 .6-.2 1.1-.6 1.5-1 .2-.2.6-.7 1-1.3-1.8.1-3.5.7-4.9 1.3.1.2.3.5.5.7.2.1.4.2.5.3z"/><path class="st58" d="M688.4 270.6zM683.5 271.9zM698.6 270.7c3.7 1.5 5.3 5.6 3.9 8.7-1.4 3.1-4.9 5.1-8.5 6.5-3.6 1.4-7.1 4.2-10.3 6.1-4.2 2.5-9.9 6.6-13.6 9.1-1.8 1.2-.9.6-2.8 1.8-2.8 1.8-5.7 1.7-8.9.1-1-.5-1.9-1.2-2.2-2.1-.7-1.7.7-3.3 2-4.6 8.3-8.2 16.8-16.5 27.6-22.4.1.1 6.1-5.8 12.8-3.2z"/><path class="st59" d="M663.2 304.4c1.5-1.4 3.1-2.7 4.6-4.1 1.9-1.6 3.7-3.2 5.6-4.7 1.9-1.5 3.9-2.9 5.9-4.2 2-1.3 4.2-2.6 6.3-3.8 2.2-1.1 4.4-2.1 6.7-3.1 2.2-.9 4.3-1.9 6-3.4 1.2-1 1.8-2.4 2-3.8.3-2.6-1.2-5.5-3.8-7.2.7.1 1.4.3 2.1.6 3.7 1.5 5.3 5.6 3.9 8.7-1.4 3.1-4.9 5.1-8.5 6.5-3.6 1.4-7.1 4.2-10.3 6.1-4.2 2.5-9.9 6.6-13.6 9.1-1.8 1.2-.9.7-2.8 1.8-1.5 1-2.5 1.6-4.1 1.5zM691 270.8s-2.9.8-6.9 5.5c0 0 1.4-3.1 5.7-5.7.6 0 1.2.2 1.2.2z"/><path class="st59" d="M690.4 271c-.8.4-2.5 1.3-4.6 3.4.8.6 3.3 2.1 7.6-.4 0 0 3.3-1.5 1.7-4-1.7 0-3.3.5-4.7 1z"/><path class="st58" d="M686.9 269.9z"/><path class="st60" d="M636.9 274c-.7 2-.5 4.1.6 5.7-6.3-8.5-15.3-23.4-19.3-33.2 0 1.3 0 2.6-.1 3.9-5.8-9.3-7.7-15.4-11.5-25.7-.5 1.2-.9 2.4-1.4 3.5-2-5.7-4.2-11.5-7.8-16.3l-.2-.2c-.2-3.3 6.8-1.7 6.9-5 .2-3.5 18.8-7.8 22.6-1-2.1-2.5 9.6 10.1 13.1 17.7-1.6-1.5-3.8-4.5-4.7-3.9 8 6 20 32.8 20.4 40.3-1.1-3.3-4.1-6.5-4.1-6.5 1.1 3.9 9.6 32.3 25.9 20.1 2.5-2.2 5-4.9 5-8.3 1.1 2.3.5 4.9-.3 7.3.7-1.8 2.3-3.2 4.1-3.6-2 1.9-3.3 4.4-4 7.1 1.7-1.1 3-2.7 3.7-4.6.7 3.4-.4 7-2.9 9.2 1.8-1.1 4.2-1 6 .2-2.7.2-5.2 1.8-6.6 4 .7.1 1.3-.1 1.7-.6.3 1.4-.1 2.8-.7 3.9-.7 1.2-1.6 2.1-2.5 3.1-1.9 1.8-4 3.5-6.1 4.9 1.1-.1 2.2-.5 3.1-1.2-1.6 2.2-3.3 4.1-5.5 5.6-1.1.7-2 1.3-3.1 2-1.6 1.1-5.8 2.7-8.3 4.3-5.2-8.2-20.3-19.9-24-32.7z"/><path class="st61" d="M600.2 231.1c-2.4-5.6-2.5-17.9-2.5-21.2 0-3.7 20.2-11.1 24.5-4.7-2.4-2.3-4.8-2.9-7-3.2 8.5 4.4 15.5 12.2 19.5 19.6-1.7-1.3-4.2-4.2-5.2-3.4 8.7 5.2 24.1 31.2 24.8 38.9-1.3-3.2-4.2-6-4.2-6 .4 1.3 2.6 5.6 5.7 10.1 1.7 2 4.1 3.4 6.7 4-.7.2-1.5.2-2.3 0 1.6 2.2 3.9 3.8 6.5 4.5-1.1.6-2.4.5-3.7.2 2.2 2.1 5.4 3 7.7 3.7-3.1 3.6-11.6 5.3-15.4 8.1-2 1.5-4.1 2.9-6.2 4.2-1.6 1-3.5 2.1-4.5 3.7-1.1-2.6-2.1-5.2-3-7.8-.7 2.1 0 5.2 1.2 6.7-7-8-19.5-27.6-24.2-37.2 0 1.3-.7 3.1-.7 4.5-6.4-8.8-11.9-18.3-16.4-28.4-.4 1.2-.8 2.4-1.3 3.7zM671.3 292.8c.1 0 .2-.1.3-.1-.1 0-.2 0-.3.1z"/><path class="st61" d="M680.6 277.5c-1.3.1-3.5-.1-5.2-.7 0 0-.1 0-.1-.1.4-1.2.9-2.3 1.4-3.5-1.3 1.2-3.2 1.9-5 1.9-1.2-.5-2.5-.9-3.7-1.2-2.9-.7-5.9 0-9 .2-1.3.1-2.6.1-4 .3-2.1.3-4.1 1.2-6 2.2-2.1 1-4.1 2.2-5.9 3.6-1 .8-2.1 1.8-2.5 3-.5 1.3-5.9-5.2-5.1-4.1 3.3 4.6 4.2 9.7 5.1 12.6 0 0-.4-4.4-.3-4.4 2.9 2.1 8.6 16.2 9 18 .3-.2.2-1.3.4-2.8 1.2 2.3 7.5 6.9 12.3 4 3-1.8 4.9-2.7 7.9-4.7-1.4.5-2.7.9-4.2 1-1.1.1-2.4-.2-2.7-1.2-1.5-4.9 5.8-7.8 8.4-9-1.6.7-6.4 1.7-6-1.9.4-4.1 3.4-6 6.7-8.4 1.9-1.2 6.4-3.6 8.5-4.8z"/><path d="M508.8 129.3s13.8 8.4 15.4 28.8c1.9 25 23.8 20.8 33 38.7 10.1 19.6-50 23.6-58.6 13.1-8.6-10.5 0-68.7 10.2-80.6z" style="fill:#e1f0f3"/><path class="st61" d="M508.8 129.3c.6-3.4-14.3-6.3-17.3-4.5-15.5 9.3-35.8 30.2-25.4 68.6 18.2 67.3 64.7 58.9 109.2 45.3 14.1-4.3 26.3-7 23.7-8.9-3.7-2.7-4.3-8.4-.7-5.6 12.6 9.7 26.7 17.8 43.9 23.2 22.1 6.9-1.1-1.9-10.8-10.1-27.9-23.8-17.8-34.7-17.8-34.7-2.3-1.7-5.9-1.4-8.8-1.4-32-.4-50.8 3.7-72.9 3.7-23.1-.1-27-53.7-23.1-75.6z"/><path class="st49" d="M496.5 149.7c-3.3 12.6 3.1 28.9 3.1 28.9s-3.2-3.7-3-2.8c.3 1.3 11.2 17.2 11.2 17.2s-5.1-4.5-4.3-2.6c0 0 19.7 16.1 22.1 12.7 6.1-8.6-21.5-61.4-21.5-61.4s-7.1 5.8-7.6 8z"/><path d="M533.3 176.8s-8.2-4.6-15-.9c-6.7 3.8 4.5-3.8 15 .9z" style="fill:#b5e0f2"/><path class="st49" d="M598.9 231.2c-2.1 1.2-12 4.2-15.2 4.5 2.6-1.1 4-3.1 4-3.1s-16.2 8-24.3 6.8-31.7 7.5-36.9 8.4c15.1 2.8 47.1-4.3 49.1-5.7-2.1 2.2-3.4 2.8-6.2 4.3 15.1-4.1 29.5-15.2 29.5-15.2"/><path class="st61" d="M627.2 242c-9.6-3.7-13.5-8.9-13.5-8.9s0 3.2 3.1 4.6c3 1.4-12-6.3-12-6.3s14.9 10.7 15.5 10.8c.6.1 6.9-.2 6.9-.2"/><path class="st49" d="M622.2 228.6c3.8 4.4 12 7.8 13.4 8.8s-9.1-2-10.6-3c-1.4-1-2.8-5.8-2.8-5.8M613.4 202.5s2.5.1 4.1.3c.3 0 .4.1.5.2 1.5.4-4.4 6.3-2.6 10.4-1.9-3.4-4-3.7-2.4 1.2s-5.2-3.1-5.2-3.1l2.3-7.7 3.3-1.3z"/><path class="st58" d="M673.4 297.8c3.4 3.2 2.9 8-.4 10.5s-8.3 3-13.1 2.8-10.3 1-14.9 1.6c-6.1.7-14.8 2.2-20.4 3.2-2.7.5-1.3.2-4.1.6-4.1.6-6.2-.7-8.9-3.8-.8-.9-1.4-2-1.4-3.1.1-2 2.6-3.1 4.8-3.8 13.9-4.6 28.9-9.3 44.4-10.5 0 0 8-3.2 14 2.5z"/><path class="st59" d="M616.2 316.4c2.5-.7 3.8-1.5 6.3-2.2 3-.8 5.9-1.6 8.9-2.3 2.9-.7 5.9-1.2 9-1.6 3-.4 6.1-.8 9.2-1 3.1-.2 6.2-.2 9.3-.1 3 0 5.9 0 8.6-.8 1.9-.5 3.3-1.6 4.3-2.9 1.7-2.6 1.9-6.1-.1-9 .7.4 1.4 1 2 1.6 3.4 3.2 2.6 8-.6 10.5-3.3 2.5-8.3 3-13.1 2.8-4.8-.2-10.3 1-14.9 1.6-6.1.7-14.8 2.2-20.4 3.2-2.7.5-1.4.3-4.2.6-2.1.1-2.6.4-4.3-.4zM664 294.4h-.8c-2 .5-3.6 2.1-2.3 2.3 1.4.2 3.9.2 7.2.4.6 0 2.7-.6 2-1.6-1.9-.8-3.7-1.1-6.1-1.1z"/><path class="st59" d="M668.8 301.4c3 2.4 2.4 6.2-.5 8.2-3 2-7.5 2.5-11.8 2.4s-9.2 1-13.4 1.5c-5.5.6-13.3 2-18.3 2.8-2.4.4-1.1.2-3.7.5-3.7.5-5.4-.4-7.8-2.7-.7-.7-1.3-1.5-1.2-2.4.1-1.6 2.4-2.4 4.3-3 12.5-3.8 24.7-6.4 38.5-7.6.1 0 8.5-4.1 13.9.3z"/><path class="st58" d="M668.4 301.9c3 2.4 2.3 5.9-.7 7.9s-7.2 2.1-11.5 2.1c-4.3-.1-9.3 1.6-13.5 2.1-5.5.6-13.3 2-18.3 2.8-2.4.4-1.1.2-3.7.5-3.7.5-5.4-.4-7.8-2.7-.7-.7-1.3-1.5-1.2-2.4.1-1.6 2.4-2.4 4.3-3 12.5-3.8 25-7.2 38.9-8.3.1 0 8.1-3.3 13.5 1z"/><path class="st59" d="M617.4 317c2.2-.6 3.3-1.3 5.6-1.8 2.7-.6 5.3-1.4 8-1.9 2.6-.6 5.3-1 8.1-1.4 2.7-.4 5.5-.7 8.3-.9 2.8-.2 5.5-.2 8.3-.3 2.6 0 5.3-.1 7.7-.7 1.7-.4 3.6-.8 4.5-1.9 1.6-2 2.3-4.9-.8-7 .6.3 1.2.2 1.8.7 3 2.4 2.4 6.2-.5 8.2-3 2-7.5 2.5-11.8 2.4s-9.2 1-13.4 1.5c-5.5.6-13.3 2-18.3 2.8-2.4.4-1.3.3-3.8.5-2 .1-2.2.4-3.7-.2-.1 0 0 0 0 0z"/><path class="st59" d="M659.8 303.2c2.6 2.3 2.2 5.8-.4 7.7-2.6 1.8-6.5 2.3-10.3 2.1-3.8-.1-8 .8-11.7 1.3-4.8.5-11.6 1.7-15.9 2.5-2.1.4-1 .1-3.2.5-3.2.5-4.6-.4-6.7-2.6-.6-.7-1.1-1.5-1.1-2.2.1-1.5 2-2.2 3.8-2.8 10.9-3.4 20.8-6.2 32.9-7.1 3.6-1.3 8.5-3 12.6.6z"/><path class="st58" d="M661.1 303.3c2.6 2.3 2.2 5.8-.4 7.7-2.6 1.8-6.5 2.3-10.3 2.1-3.8-.1-8 .8-11.7 1.3-4.8.5-11.6 1.7-15.9 2.5-2.1.4-1 .1-3.2.5-3.2.5-4.6-.4-6.7-2.6-.6-.7-1.1-1.5-1.1-2.2.1-1.5 2-2.2 3.8-2.8 10.9-3.4 20.8-7 32.9-8 .1-.1 7.9-2.6 12.6 1.5z"/><path class="st59" d="M616.7 317.3c2-.5 2.7-1.2 4.7-1.7 2.3-.6 4.6-1.2 7-1.7 2.3-.5 4.6-.9 7-1.3 2.4-.3 4.8-.6 7.2-.8 2.4-.2 4.8-.2 7.3-.2 2.3 0 4.2 0 6.3-.3 1.5-.2 4-.5 4.8-1.5 1.4-1.9 1.5-4.6.4-6.4 2.7 1.3 2.2 5.8-.4 7.7s-6.5 2.3-10.3 2.1-8 .8-11.7 1.3c-4.8.5-11.6 1.7-15.9 2.5-2.1.4-1.1.2-3.3.5-1.7.1-1.8.4-3.1-.2z"/><path class="st59" d="M654.5 305.8c2.2 1.8 1.8 4.6-.4 6-2.2 1.5-5.6 1.8-8.8 1.8-3.2 0-6.9.7-10 1.1-4.1.5-9.9 1.5-13.7 2.1-1.8.3-.9.1-2.8.4-2.8.4-3.8-.2-5.5-2-.5-.5-.9-1.1-.9-1.7.1-1.2 1.8-1.8 3.3-2.2 9.4-2.8 17.8-5.8 28.1-6.7-1.5.5 8.5-.6 10.7 1.2z"/><path class="st58" d="M654.5 306.7c1 2.7-.1 4.6-2.4 6.1-1.9.5-13.8 2.5-16.9 2.8-4.1.5-9.9 1.5-13.7 2.1-1.8.3-.9.1-2.8.4-2.8.4-3.8-.2-5.5-2-.5-.5-.9-1.1-.9-1.7.1-1.2 1.8-1.8 3.3-2.2 9.4-2.8 18.4-6.9 28.7-7.7.1 0 9.2-.5 10.2 2.2z"/><path class="st59" d="M647.2 306c.6 0 .7.1 1.3.1.8 0 1.5.1 2.3.1.7 0 1.5 0 2.1-.4.6-.4 0-.6-.1-.6-1.4-.4-3.6-.4-4.5-.2-1.4.2-1.6.9-1.1 1zM616.5 318.8c1.7-.4 32.2-5.7 34.1-6.2 1.3-.3 2.3-.9 2.9-1.7 1.2-1.5 1.7-2.6 1.1-4.1.5.2.4-.5.7-.1 1.1 1.1 1.2 4.5-1 6-1.7 1.1-5.5 1.3-8.8 1.8-3.3.3-29 4.3-29 4.3zM660.3 300.5c.6.1.7.2 1.3.3.8.1 1.5.3 2.3.4.7.1 1.5.2 2.1-.2.6-.3.1-.6 0-.6-1.1-.5-3.5-.8-4.4-.7-1.5 0-1.8.7-1.3.8zM655.3 304c.6 0 .7.1 1.3.1.8 0 1.5.1 2.3.1.7 0 1.5 0 2.1-.4s0-.6-.1-.6c-1.4-.4-3.6-.4-4.5-.2-1.3.3-1.5 1-1.1 1z"/><path class="st61" d="M633.2 308.6h.3-.3z"/><path class="st58" d="M660.5 295.3zM655.8 294.6z"/><path class="st5" d="M608.5 278c-1.5 1.5-2.2 3.6-1.8 5.5-2.3-10.4-4.4-27.6-4.1-38.2-.5 1.2-1.1 2.3-1.6 3.5-1.5-10.8-.7-17.2 0-28.2l-2.7 2.7c.5-6 6.3-11.5 4.9-17.3 0-.1.9-.1.8-.1 1.1-3.1.6.3 2.1-2.5 1.6-3.2 20.3.6 21 8.3-.9-3.2 4.7 13.1 4.7 21.5-.8-2-1.6-5.7-2.7-5.5 4.8 8.7 4.9 38.1 2.3 45.1.3-3.4-1.1-7.7-1.1-7.7-.6 4-4.4 33.4 15.5 28.9 3.1-1 6.5-2.4 8-5.5.1 2.5-1.6 4.7-3.3 6.5 1.4-1.3 3.4-2 5.2-1.6-2.5.9-4.8 2.6-6.5 4.9 2-.3 3.8-1.3 5.3-2.7-.7 3.4-3.3 6.2-6.4 7.2 2-.3 4.2.8 5.4 2.6-2.6-.9-5.4-.5-7.7 1 .5.4 1.3.4 1.8.1-.3 1.4-1.2 2.5-2.3 3.3-1.1.8-2.3 1.3-3.6 1.8-2.5.9-5 1.6-7.6 2 1.1.4 2.2.4 3.3.2-2.3 1.3-4.7 2.4-7.3 2.9-1.3.2-2.4.4-3.6.6-1.9.3-6.4.1-9.3.6-1.5-9.9-10.6-26.8-8.7-39.9z"/><path class="st61" d="M592.5 223.8c.1-6 9.4-16.7 10.8-19.8 1.5-3.3 18.5-2.5 19.8 5.1-1.2-3.1-3.2-4.6-5.1-5.8 6 7.5 7 15.8 7.6 24.2-1-1.9-3.5-4.5-4.7-4.2 5.8 8.2 11.2 33.6 8.7 40.9.2-3.5-2.6-7.4-2.6-7.4-.1 1.3 3 11.5 4 17 .8 2.5 2.4 4.8 4.5 6.4-.8-.1-1.5-.4-2.1-1 .5 2.6 2 5.1 4.1 6.8-1.3 0-2.4-.5-3.4-1.3 1.2 2.8 3.7 4.9 5.6 6.5-4.3 2.1-12.7.1-17.4 1.2-2.5.5-4.9 1-7.4 1.3-1.8.2-4.1.4-5.7 1.5 0-2.8.2-5.6.4-8.3-1.5 1.6-2.1 4.7-1.6 6.6-3.1-10.1-9.6-33.3-9.9-43.9-.5 1.2-.5 2.6-1 3.8-2.3-10.7-3.4-21.6-3.4-32.6-.8 1-.3 2.1-1.2 3zM632.3 309.1h.3-.3z"/><path class="st61" d="M646.9 299c-1.2-.4-3.1-1.6-4.4-2.8l-.1-.1c.9-.9 1.8-1.7 2.7-2.6-1.7.6-3.7.5-5.3-.3-.9-.9-1.9-1.8-2.9-2.6-2.3-1.8-5.4-2.4-8.3-3.5-1.2-.5-2.4-1-3.7-1.4-2-.5-4.2-.6-6.3-.5-2.3.1-4.6.4-6.8.9-1.3.3-2.6.8-3.5 1.7-1 1-3.3-7.2-3-5.8 1.1 5.6-.1 10.6-.5 13.6l1.5-4.2c1.8 3.1 1.3 18.3.9 20.1.4 0 .8-1.1 1.5-2.4.2 2.5 4 9.4 9.6 8.7 3.5-.4 5.6-.5 9.1-1.1-1.5-.1-2.9-.3-4.2-.8-1-.4-2.1-1.1-2-2.2.6-5.1 8.5-4.8 11.3-4.8-1.7 0-6.5-1-4.7-4.2 2.1-3.6 5.6-4.1 9.5-5 2.2-.2 7.2-.5 9.6-.7z"/><path class="st67" d="M475.1 111.8c-1.9 3.5-.1 8.4-.3 12.4 3.8-2.8 2.9 1.4 3.6 2.6l.5 4 1.8-2.4c1.6 2.2 1.7 3.5 1.7 3.5l1.4-1.5 6 10.2 1-2 6.9 3.1-.2-.2.2.2 1.5-1.1 2.5 5.7 1.3-3.1 4 5.1.5-2.5 5.9 1.1-.1-1.7 5.7-2.4-1.5-2.2 4.4-4.9 1.7-.7-48.5-23.2z"/><g id="XMLID_118_"><path class="st70" d="M582.8 168.4c-2.8 1.8-7.1 8.5-7.1 8.5s1.2 1.4 1.9 2.1c5.2 5.8 9.3.2 9.3.2s-3.1-3.5.9-7.5c.9-.9 1.5-3.8 2.8-5.4 1.9-2.2-.2-4.6-1-4.4-.8.1-2.5 3.7-6.8 6.5z"/><path class="st59" d="M582.1 170.8c1.3-.8 5.7-3.4 8.4-4.6-.4 1.1-1.8 3.2-2.1 3.6-1.3 1.6.2.9-.7 1.8-4 4-.9 7.5-.9 7.5s-4.1 5.6-9.3-.1c-.3-.3-1.5-1.7-1.9-2.1 1-1 5.5-5.5 6.5-6.1z"/><g id="XMLID_119_"><g id="XMLID_122_"><path id="XMLID_126_" class="st70" d="m567.5 196.6 10.3-6.9s2.4-1.2 4.4-1.8 7.4-1.9 13.3-5.8c1.9-1.2 6.4-4.8 6.4-4.8s3.6-3.9 1.7-5.8c0 0 1-1.3 1.1-2.2.1-.9.1-1.6.1-1.9 0-.2-.4-1.1-1.2-1-.8.1-1.9.8-2 1.4-.1.6-2.1 1.8-2.3 1.9-.2.1-3.4 1.7-3.7 1.8-.3.2-1.5.6-1.6.4-.1-.2 11.6-7.2 12.8-8.2 1-.8-.5-4-1.7-3.7s-20.9 10.6-22.5 11.3c-1 .4-5.8 4.5-6.7 5.5-3 3.9-12.1 7.1-12.1 7.1l3.7 12.7z"/><path id="XMLID_125_" class="st59" d="M593.9 172c-.2 1 5.3-1.7 6.1-2.1.8-.4 1.7-1.1 1.9-1.5.5-.8.5-1.6.5-1.6s-.7.3-.9.8c-.8 1.7-6.9 4.3-7 4.4-.1 0-.7.1-.6 0z"/><path id="XMLID_124_" class="st59" d="M596.5 176.2c-.5.3-.1.6.4.4 0 0 4-1.9 4.5-2.4s1.7-1.7 2.1-2.7c0 0-1.2 1.8-2.3 2.3-1.2.6-4.4 2.3-4.7 2.4z"/><path id="XMLID_123_" class="st59" d="M596.7 179.9s-.3.4.2.3c.3-.2 4.4-2.3 4.9-3 .6-.6 1.4-1.9 1.4-1.9s-.7 1.1-1.9 1.8c-1.2.9-4.6 2.8-4.6 2.8z"/></g><path id="XMLID_121_" class="st59" d="M604.8 160.6s-1.4.6-1.5.9c0 .3 1.1 2.3 1.4 2.5.2.2 1.5-.8 1.5-.8s.3-.4 0-1.2c-.3-.8-.8-1.1-.8-1.1s-.3-.2-.6-.3z"/><path id="XMLID_120_" class="st59" d="M604.2 166.6s-.2.6-.1 1 .5.9.5.9.2-.7.1-1.2c0-.4-.5-.7-.5-.7z"/></g></g><path class="st60" d="M525.7 191.5c1.8-1.3 3.5-2.8 4.7-4.6.4-.6.8-1.4 1-2 .1-.4.1-.5.1-.9 0-.3 0-.1-.1-.3-.1-.2-.1-.3-.1-.3-.3-.4-.1-.9.2-1.2.1-.1.1-.2 0-.3-3.8-4-7.1-8.6-9.4-13.7.8 1.3 2.4 2.2 4 2.2-3.4-4.1-6-8.8-7.5-13.9-.9-2.9-1.5-6-2.8-8.8-2.3-5.1-9.8-10-16.3-5.5-.1 12.7 6.3 26.7 10.9 38.5 1.9 4.9 3.9 9.9 6 14.8 0 .1.1.1.2.1 3.3-.5 6.5-2.2 9.1-4.1z"/><path class="st60" d="M568.3 198.9c-1.4.8-3.2 1.5-4.6.7 4.7-.6 10.9-5.2 14-8.8-1.6.1-3.2-.4-4.5-1.3h.6c1.4.2 2.9.3 4.3.5-1.8-.9-3.4-2-4.9-3.4 2-.4 4-.5 6-.3-1.7-1.3-3.5-2.5-5.4-3.5 1.1.1 2.3-.3 3.1-1-.9 0-1.9-.7-2.5-1.2 1.5 0 3.5.5 4.3 1.7 0-3.7-3.6-3.3-4.8-3.1 1.7-.3 3.2-1.5 3.9-3-4.7 2.5-10.2 3.6-15.6 3.2 1.1-1.1 2.7-1.7 4.3-1.6-7.4-.7-16.8.9-23.9 3.1 1-.7 1.9-1.4 2.9-2.1-4-.1-8 1.1-11.1 3.5.6-1.4 1.1-2.9 1.7-4.3-1.3 3.6-5.6 5.8-9.3 5-.2 0-.2-.4 0-.4.8-.1 1.6-.2 2.4-.5.2-.1.2-.4 0-.4-2.1-.3-4.7-1.6-6.5-1.4-2 .3-5.6 3.5-7.3 4.7-.1.1-.1.2 0 .3l1.3 1.3c.1.1.1.3-.1.3-2.7.4-5.4.8-8.1 1.4-3 .7-10.8 2.9-8.8 7.4.7 1.5 2.1 3.3 2.9 4.6 1.3 2.1 2.9 4.1 3.8 6.4.1.2.4.1.4-.1 0-.5-.1-1-.2-1.5-.1-.2.2-.3.4-.2.3.4.5.8.8 1.3 0 .1.1.1.2.1 1-.3 1.8-.4 2.7-.5.2 0 .3.3.1.4-.2.1-.2.3 0 .4 3.9 1.4 8.3 1.5 12.3.2-.8-.5-1.7-.8-2.6-.9 5.4.5 10.7 1.7 15.7 3.5-1-1-2.1-1.7-3.4-2.3 6.3 2.3 13.4 2.1 19.5-.7-1.3.2-2.7.1-4-.2 7-.8 14-3.3 20-7.3z"/><path class="st61" d="m577.6 190.8-.2.2c.1 0 .2-.1.2-.2z"/><path class="st61" d="M577.6 190.8c.2-.2-2.1.4-4.6-1.3.8.1 4.9.6 5 .6 0 0-2.9-1.4-4.8-3.3 0 0 2.8-.7 6-.4-2.1-1.1-2.4-1.4-4.8-1.3-3.2 0-5.6 3.4-8.7 3 1.3.4 2.7.6 4-.1-.6 1-1.6 1.7-2.6 2.1-.8.2-3.5 2.7-4.4 2.7-.8 0-1.3-.4-1.9-.6 0 0 0 .1.1.1-.8-.4-1.6-.9-2.4-1.4 1.2 1.5 2.8 2.7 4.6 3.4-5.3.3-10.7-1.3-15.1-4.4 1.7 2.5 4.3 4.4 7.2 5.2-6.5 1.4-13.6 0-19.1-3.8.7 1.4 3.8 5.1 4.2 5.4-.4-.1-13.6 6.7-32.2-8.3 0 0-.1-.1-.2 0-3.2.8-12.6 6.1-10.7 10.4.7 1.5 2.1 3.3 2.9 4.6 1.3 2.1 2.9 4.1 3.8 6.4.1.2.4.1.4-.1 0-.5-.1-1-.2-1.5-.1-.2.2-.3.4-.2.2.2.4.5.6.8-.4.4-.7.9-.6 1.4.3 1.5 4.6 2.1 5.7 2.3 4.8 1.2 9.7 1.5 14.6 1.1-1.9-.5-3.7-.9-5.6-1.4 12.1 1.5 24.5.1 36-3.8-2-.1-3.9-.2-5.9-.3 4.6-.4 9-2.4 12.7-5 .9-.6 1.7-1.3 2.5-1.9 1.2-.6 2.4-1.4 3.5-2.1-.7.4-1.4.7-2.1.9.4-.3.8-.7 1.1-1 3.2-1.1 7.9-5.2 10.1-7.7.2-.1.8-.7.5-.5z"/><path class="st61" d="M516.6 207.6c.9-1.5.4-3.5-.2-5.2-.4-1.2-.9-2.4-1.4-3.6 3.1.6 6.6.8 8.9-.4.1-.1.1-.3 0-.3-2.6-2-3.5-3.7-3.6-4.6 0-.2.1-.3.3-.2.9.4 2.2 1.7 3 2.4.2.1.4 0 .3-.2-2.7-6.4-5.9-13.9-10.6-18.9 2.1.1 4.3 1 5.9 2.6-2-3.1-4.4-6-7-8.6 1.2.3 2.4 1 3.5 1.9-3-3.4-4.7-7.9-4.8-12.2 1 1.3 2.1 2.6 3.1 3.9-3-3.8-4.3-25.4-12.7-24.3-1.8.3-6.5 3.6-9.7 12.8 1-1.2 1.5-2.1 2.6-3.1l.1.1c-1.3 1.4-2.1 3.3-2.3 5.2.5-.5 1-1 1.6-1.5-.1 1.6 1.8 9.9-2.5 13.6.7.2 1.4-.2 1.9-.7.7-.6 1.2-1.4 1.6-2.3l.3 1.2v.1c-.4 1.6-.8 3.1-1.3 4.7-.6 2.3-1.3 4.7-1.5 7.1-.3 3.1.4 6.3 1 9.4-.3-2.5-.1-5 .6-7.3 1 8.7 3.4 17.3 7.1 25.3.1.2.4.1.4-.1 0-.4-.1-.8-.1-1.1 0-.2.3-.3.4-.1.5 1.2.5 2.6 0 3.7-.1.2.1.3.3.3 1.9-.9 4.3-.6 6.4-.1 2.3.6 4.6 1.5 7 1.5.3 0 .5 0 .8-.1.2-.4.4-.6.6-.9z"/><path class="st71" d="m532.9 118.5-.3.6c-.2.5-.6 1.1-1 1.9-1.1 2.1-.7 5.1-1.1 6.2-4.9-2.8-9.3-5.9-9.3-9.3.8-4.9 11.7.6 11.7.6z"/><path d="M532.6 119.1c-.2.5-.6 1.1-1 1.9 0-.1-.1-.3-.1-.3l-1.8 2.6-.5-2.8-1.6 2-.3-2.6-1.3 2.2-.8-2.4-.9 2.1c-.9-.1-1-3.8-1-3.8l9.3 1.1z" style="fill:#f8fcff"/><path class="st73" d="m527.6 136.5-1.9.5c1.4.6 2.7 1.2 3 1.3.6.3 1.3-3.8 1.3-3.8s0-.2-.1-.5l-1.3 1.3-1 1.2z"/><path class="st73" d="M521.9 135.2c-.3-.2-5.3-1.6-7.6-2.4.2.1 9.6 4.7 9.6 4.7l1.9-.5c-1.8-.8-3.8-1.7-3.9-1.8z"/><path d="m528.8 97.2.3 1.2-4.4-.7 3.4 2.8-12-.9 1.1 7.3-7.3-2.8-3.7-1.8 8.1-5.7s4.1-2.6 4.5-2.8c.4-.2 3-.8 3-.8l2.8 1.6 4.2 2.6z" style="fill:#2399b9"/><path class="st75" d="m533.2 114.3-4.6-5.8c-1.3-1.4.1-3.9 2-4.2l-2.4-14.6c-.2-1.1-1.2-2-2.3-2l-2.7-.2c-.2 0-.3 0-.5-.1-14.1-3.6-25 8.8-32.3 20.4-7.3 11.6 22.5 39.8 30.5 30.6 2.4-2.7 4.4-5.4 6.1-8-3.2-1.4-6.5-2-8.4-5.3-.3-.6-.2-1.1.2-1.5-1.3-1.2-2.4-2.6-3.4-4.2-.7-1.3.8-2.4 1.8-1.9.2-.5.6-.9 1.3-.8 1.1 0 15 1.2 15.3-.5.1-.7-.2-1.4-.6-1.9z"/><path class="st75" d="M529.9 103.4s1.7 3.1 3.1 4.7c3.5 4 4.5 3.1 3.5 5.5-1.1 2.4-2.2 2.8-6.3 3s-9-8.5-.3-13.2z"/><path class="st75" d="M533.8 116.3s-.2.6.1 2.5c-1.2 1.3-6.6 1.1-11.4-1.2-1.2-.6.5 5.2 7.1 8.3 1.1.5 1.9.3 1.7 1.3-.3 1-2.1 1.8-1.6 2.9.5 1.1-.2 12-8.8 8.3-8.7-3.6-22.8-11.3-17.1-16.8s13.3-8.3 13.3-8.3l16.7 3z"/><path d="m475.9 120.3-1 5.9 2.3-1.2.7 7.5 2.7-1.4 1.2 6.9 3.7-1 1.8 4 2.7-2.2 1 3.8 3.4-2.2-.4 4.1 3.5-3.3 2.7 4.9 5.2-3.1 3.3 3.5 4.1-5.1 2.1 5.3 4-2.7s5.1 3.7 5.3 3.2c.2-.5 3.5-6.6 3.5-6.6l-16.1-6-19-10.6-6.6-6.6-4.6-3.7s-2.5 1.4-3.4 2.4-2.1 4.2-2.1 4.2z" style="fill:#acdaef"/><path d="M530.7 96.1s1.2-3.1 4.4-3.9c3.1-.8 8.4-.3 8.4-.3s-3.1-4.9-6.7-4.6-7.4 1.4-7.4 1.4 6.2-6.3 7.9-6.6c-5.1-.9-10.8 2.4-10.8 2.4l-7.2-3.6-.4-7.4-4-4.4s.7 5.4.2 7.2c-.6 1.7-2.6-.1-2.6-.1s-2.4-4.5-4.2-5.6-3.8-2.4-3.8-2.4 2.5 6.4 2.4 8.7c-.2 2.3-1.9 2.5-1.9 2.5s-7-3.9-8.6-3.7l-2.4.3 5.2 3.8 4.2 2.5-6.4-1.9-6.1.6-4.9.9 5.6 3-11.6 3 5.2 4.3-13.5 5.1 8.4 3.5-8.7 5.5 8.2-.1-6.3 11.9 2.4.3-.3 6.5 2.8-4.1.2 5.8 2.9-.6 1.6 8.1 4.1-1.1 1.2 3.1 3.5-1.8 1.3 3.9 4.4-2.5v4l5.9-4.2-1.5 6.7 4.2-3.7 3.4 4.3 3.6-3.1 2.8 4.2 2.2-2.5 9.4 4.1 1.3-3.4-.1-2.1-6.8-3.1-11.3-8.2-4.4-10.9s-2.7-8.5-2.6-9.1c0-.6.8-4.6.8-4.6s9.2-6.8 9.9-7.3 7.3-3.9 7.3-3.9l9.2 3.2z" style="fill:#c3e7f9"/><path d="M530.5 104.2c-.1 0-.2 0-.2.1-1.3.2-5.2-1.1-6.8-1.2-1.6-.1-3.2.7-4 2-1.5 2.3-1.4 6.5-4.3 5.2-4.6-2-6.9 8.1-9.8 4.9-4.4-4.8 3.1-25.2 3.1-25.2s13.4-2.9 19-1.8c.4.4.7.9.8 1.4l2.2 14.6z" style="fill:#1abbd7"/><path class="st11" d="m471.6 97.3 12.5.5s-10.5 4.5-12.9 8.6l8.2-4.5s-6.8 10.5-6.1 16.2c3.1-3.7 8.3-6.8 8.3-6.8l-1.8 11.6 3.1-4.2 1 7.3 2.3-1.3 1.8 5.8 2.9-2.2 1.7 2.7 1.4-1.2 1.2 4.2 5-2.2.1 3.5 3.8-1 .4 4.3 3.9-2.9 2.1 3.7 3.2-2.8 2.4 5.5 2.1-3.3 1.8 3.4 2.4-3.6 6.6 3.5s2.3-2.2 2.7-4.8c.4-2.7-1.5-4-1.5-4l-6.1 2.9-1.4-3.5-3.6.6 2.5-4.1-5.8 1.1 2.9-5.6-2.2.1.8-3.1-3.5.1 2.1-5.8s-5.8 5.2-8.7 0c-2.8-5.1 3.9-13.5 3.9-13.5l5.9 4.4 1.8-8.3 9.1 1.8-3.2-3.7 7.6.9-4.4-3.5s6.1 1.1 7.8 3.5c-.6-2.7-3.9-6.3-3.9-6.3s5.7-3.3 11.2.1c-2.4-4.4-6.8-8.2-13.2-3-.7-2.7 1.5-6.7 7.4-6.2-2.4-1.4-7-.7-8.9.5 1.7-2.2 2.4-4.1 2.4-4.1s-3.8.7-4.9 2.3c-1.7-3.5-5.9-9.8-11-11.8 3.5 3.7 2.9 9.5 2.8 11.8-2.3-5.4-7.3-12-13.1-12.8 5.5 4.3 6.7 7.7 7.9 13.3-4.9-5.2-11.2-8.6-18.6-5.5 5.6.4 9.9 3 11.5 4.8-6-2.1-11.7-2.9-19.5 1.1 8.1-.2 12.2.1 12.2.1s-10.8 2.7-18.2 5.9c7.9-1.1 11-.9 11-.9l-19.2 10.4z"/><path class="st71" d="M535.7 112.7s-3.2 1.1-3.1 1.5c.1.4.8 1.6 1.7 1.2 1.4-.5 1.8-1.6 1.4-2.7z"/><path class="st75" d="M503.5 119.5s.1-4.4-.3-6.6c-.4-2.1-1.8-9.6-5.4-8.5-3.6 1.1-2.2 8.7-.8 10.2 1.3 1.6 5.4 3.5 6.5 4.9z"/><path class="st48" d="M500 114.8s-1.8-1.4-.6-2.3c1.1-.9 1.6-6.9-1.7-6.3-2.4.5-1.5 4.6-.3 6.8 1.1 2.2 2.6 1.8 2.6 1.8z"/><path d="M524.4 106.1c1.5.2 2.7 1.3 2.7 2.6 0-.1.1-.3.1-.4.2-1.5-1-2.8-2.7-3.1-1.7-.2-3.2.8-3.4 2.3v.4c.4-1.2 1.8-2 3.3-1.8z" style="fill:#465578"/><path class="st48" d="M529.7 130.6c0-.2-.1-.4-.1-.5-.2-.4 0-.8.3-1.2-1.7-1.2-2.5-2-4.5-2.4 2.4 1.2 2.3 3.5 4.3 4.1z"/><path class="st49" d="M577.5 239.3c-9.9-1.3-19.3 2.5-24 .3 3.8 1.7 1 5.9 1.1 6.7-2.7-4.2-24.4-17-31.2-8.6-3.3 4.1-8.2-22.2-8.2-22.2 11.9 14.9 42.2 18.2 44.8 18.7-3.4.1-8.3-4.5-8.3-4.5s15.5 9.7 29.5 5.8l-3.7 3.8z"/><path class="st49" d="M521.5 225.5c-14.9-7.4-18.6-18-21.9-25.5l.3 7.7c-5.4-3-13-22.3-14.1-32-.5 2.7-.8 5.4-.9 8.1 0 0-7.5-17.4-7.1-30.3l-2.9 5.7c-.7-9.1 2.5-24.5 8.3-29.3-14 11.5-27.5 42.1-24 50.7.9-2.7 17.5 42.8 17.8 39.9 0 0 4.5 11.6 26.4 23.6 17.2 9.4 40.3.7 51.1 2.1-2-2.2-30.9-15.4-34.1-18.1s1.1-2.6 1.1-2.6z"/><path class="st15" d="M459.4 309.8c-.4-66.4-.8 11.3-1.2-55 0-4.8.8-7.4 7.6-7.9 16.9-1.2 46.9-3.9 46.9-3.9 18 2 54.7-1.5 54.7-.1 0 61.7-.1 18.8-.1 80.5 0 1.4-1.1 2.6-2.4 2.7-21.3 2-31.4 3-52.7 5.2l-47.4-16.2c-2.2-.3-5.3-1.4-5.4-5.3z"/><path class="st16" d="M506.5 325c-.3-60.3-.5-9.5-.7-69.9 0-6.4 4.6-11 10.3-10.4 24.1 2.4 48.2-5.5 72.3-3.5 5.9.5 10.7 5.8 10.7 11.8 0 54.7-.1 8.6-.1 63.4 0 3.3-2.6 6.1-5.8 6.3-27 2.2-54 4.8-81 7.6-3.1.4-5.7-2-5.7-5.3z"/><path class="st17" d="M593.7 323.6c-27 2.2-54 4.8-81 7.6-1.2.1-2.3-.1-3.3-.5-2.2-1-3.7-3.2-3.7-6-.3-60.4-.5-9.6-.7-70 0-3.4 1.2-6.5 3.4-8.7 2.2-2.2 5.1-3.2 8.2-2.9l72.3-3.4c3.2.3 6.2 1.8 8.5 4.3s3.5 5.6 3.5 8.9c0 54.6 0 8.5-.1 63.1 0 3.9-3.2 7.3-7.1 7.6zm-77.1-77.8c-2.4-.2-4.7.6-6.5 2.3-1.7 1.7-2.7 4.2-2.7 6.9.2 60.2.5 9.3.7 69.6 0 1.3.5 2.4 1.3 3.2.9.8 2 1.2 3.2 1.1 27-2.8 53.9-5.4 81-7.6 2.5-.2 4.6-2.4 4.6-5 0-54.8.1-8.7.1-63.5 0-2.6-1-5.1-2.8-7.1-1.8-2-4.2-3.2-6.7-3.4l-72.2 3.5z"/><path class="st18" d="M588.3 249.8c-26.7.9-54.2 2-80.9 3.1 0 10.7.1 21.5.1 32.2 9.8-.7 20.5-1.5 30.3-2.2.5 0 1-.3 1.3-.7.5-.6.8-.9 1.4-1.6.3-.4.8-.6 1.3-.7 7.3-.5 10.9-.8 18.2-1.3.5 0 1 .1 1.3.5l1.4 1.4c.3.3.8.5 1.3.5 9.7-.7 14.5-1 24.3-1.6 2.2-.1 3.9-2 3.9-4.2v-21.5c0-2.2-1.7-3.9-3.9-3.9zM588.3 283.7c-26.6 1.8-53.3 3.9-79.9 6 0 10.3.1 20.6.1 30.9 9.8-1 19.6-2 29.4-2.9.5 0 1-.3 1.3-.7.5-.6.8-.9 1.4-1.6.3-.4.8-.6 1.3-.7 7.2-.7 10.8-1 18.1-1.7.5 0 1 .1 1.3.4.5.5.8.8 1.4 1.3.3.3.8.5 1.3.4 9.7-.9 14.5-1.3 24.3-2.1 2.2-.2 3.9-2.1 3.9-4.3v-21.4c0-2.1-1.8-3.8-3.9-3.6z"/><path d="M523.2 263.3c0 1.8-1.3 3.2-2.8 3.3-1.6.1-2.8-1.3-2.8-3 0-1.8 1.3-3.3 2.8-3.3 1.5-.1 2.8 1.2 2.8 3z" style="fill:none;stroke:#f7dea4;stroke-width:.9098;stroke-miterlimit:10"/><path class="st86" d="M522.4 274.2c0 1.2-.9 2.3-2 2.4-1.1.1-2-.9-2-2.1 0-1.3.9-2.3 2-2.4 1.1-.1 2 .9 2 2.1zM523.3 299.1c0 1.7-1.3 3.2-2.8 3.3-1.6.1-2.8-1.1-2.8-2.8 0-1.7 1.3-3.2 2.8-3.3s2.7 1.1 2.8 2.8z"/><path d="M522.5 309.7c0 1.2-.9 2.3-2 2.4-1.1.1-2-.8-2-2s.9-2.3 2-2.4c1.1-.1 2 .8 2 2z" style="fill:none;stroke:#f79f6e;stroke-width:.9898;stroke-miterlimit:10"/><path class="st19" d="M564.3 259.6c-1.2.1-1.8.1-3 .1v-3.3c1.2-.1 1.8-.1 3-.1v3.3zM569.5 259.4c-1.2.1-1.8.1-3.1.1v-3.2c1.2-.1 1.8-.1 3.1-.1v3.2zM574.7 259.1c-1.2.1-1.8.1-3.1.1V256c1.2-.1 1.8-.1 3.1-.1v3.2z"/><path class="st39" d="M579.9 258.9c-1.2.1-1.8.1-3.1.1v-3.2c1.2-.1 1.8-.1 3.1-.1v3.2z"/><path class="st19" d="M585.1 258.7c-1.2.1-1.8.1-3.1.1v-3.2c1.2-.1 1.8-.1 3.1-.1v3.2zM564.3 265.8c-1.2.1-1.8.1-3 .2v-3.2c1.2-.1 1.8-.1 3-.2v3.2zM569.5 265.5c-1.2.1-1.8.1-3.1.2v-3.2c1.2-.1 1.8-.1 3.1-.2v3.2zM574.7 265.2c-1.2.1-1.8.1-3.1.2v-3.2c1.2-.1 1.8-.1 3.1-.2v3.2zM579.9 265c-1.2.1-1.8.1-3.1.2V262c1.2-.1 1.8-.1 3.1-.1v3.1zM585.1 264.7c-1.2.1-1.8.1-3.1.2v-3.2c1.2-.1 1.8-.1 3.1-.1v3.1z"/><path class="st38" d="M564.3 271.9c-1.2.1-1.8.1-3 .2v-3.2c1.2-.1 1.8-.1 3-.2v3.2z"/><path class="st19" d="M569.5 271.6c-1.2.1-1.8.1-3 .2v-3.2c1.2-.1 1.8-.1 3-.2v3.2zM574.7 271.3c-1.2.1-1.8.1-3.1.2v-3.2c1.2-.1 1.8-.1 3.1-.2v3.2zM579.9 271c-1.2.1-1.8.1-3.1.2V268c1.2-.1 1.8-.1 3.1-.2v3.2z"/><path class="st21" d="M585.1 270.7c-1.2.1-1.8.1-3.1.2v-3.2c1.2-.1 1.8-.1 3.1-.2v3.2z"/><path class="st19" d="M543.4 260.7c-1.2.1-1.8.1-3 .2v-3.3c1.2-.1 1.8-.1 3-.1v3.2zM548.5 260.4c-1.2.1-1.8.1-3 .2v-3.3c1.2-.1 1.8-.1 3-.1v3.2zM553.7 260.2c-1.2.1-1.8.1-3 .2v-3.3c1.2-.1 1.8-.1 3-.1v3.2zM558.9 259.9c-1.2.1-1.8.1-3 .1v-3.3c1.2-.1 1.8-.1 3-.1v3.3zM543.4 267c-1.2.1-1.8.1-3 .2v-3.3c1.2-.1 1.8-.1 3-.2v3.3zM548.5 266.7c-1.2.1-1.8.1-3 .2v-3.3c1.2-.1 1.8-.1 3-.2v3.3zM553.7 266.4c-1.2.1-1.8.1-3 .2v-3.3c1.2-.1 1.8-.1 3-.2v3.3zM558.9 266.1c-1.2.1-1.8.1-3 .2V263c1.2-.1 1.8-.1 3-.2v3.3zM543.4 273.2c-1.2.1-1.8.1-3 .2v-3.3c1.2-.1 1.8-.1 3-.2v3.3zM548.6 272.9c-1.2.1-1.8.1-3 .2v-3.3c1.2-.1 1.8-.1 3-.2-.1 1.3 0 2 0 3.3zM553.7 272.6c-1.2.1-1.8.1-3 .2v-3.3c1.2-.1 1.8-.1 3-.2v3.3zM558.9 272.3c-1.2.1-1.8.1-3 .2v-3.3c1.2-.1 1.8-.1 3-.2v3.3z"/><path class="st21" d="M564.3 294.7c-1.2.1-1.8.1-3 .2v-3.2c1.2-.1 1.8-.1 3-.2v3.2z"/><path class="st19" d="M569.5 294.3c-1.2.1-1.8.1-3 .2v-3.2c1.2-.1 1.8-.1 3-.2v3.2zM574.7 293.9c-1.2.1-1.8.1-3.1.2v-3.2c1.2-.1 1.8-.1 3.1-.2v3.2zM579.9 293.5c-1.2.1-1.8.1-3.1.2v-3.2c1.2-.1 1.8-.1 3.1-.2v3.2zM585.1 293.1c-1.2.1-1.8.1-3.1.2v-3.2c1.2-.1 1.8-.1 3.1-.2v3.2zM564.3 300.8c-1.2.1-1.8.2-3 .3v-3.2c1.2-.1 1.8-.2 3-.3v3.2zM569.5 300.3c-1.2.1-1.8.2-3 .3v-3.2c1.2-.1 1.8-.1 3-.2v3.1zM574.7 299.9c-1.2.1-1.8.1-3.1.2v-3.2c1.2-.1 1.8-.1 3.1-.2v3.2zM579.9 299.5c-1.2.1-1.8.1-3.1.2v-3.2c1.2-.1 1.8-.1 3.1-.2v3.2zM585.1 299.1c-1.2.1-1.8.1-3.1.2v-3.1c1.2-.1 1.8-.1 3.1-.2v3.1zM564.3 306.8c-1.2.1-1.8.2-3 .3v-3.2c1.2-.1 1.8-.2 3-.3v3.2zM569.5 306.4c-1.2.1-1.8.2-3 .3v-3.2c1.2-.1 1.8-.2 3-.3v3.2zM574.7 305.9c-1.2.1-1.8.2-3.1.3V303c1.2-.1 1.8-.2 3.1-.3v3.2zM579.9 305.5c-1.2.1-1.8.1-3.1.3v-3.1c1.2-.1 1.8-.1 3.1-.2v3zM585.1 305.1c-1.2.1-1.8.1-3.1.2v-3.1c1.2-.1 1.8-.1 3.1-.2v3.1zM543.4 296.5c-1.2.1-1.8.2-3 .3v-3.2c1.2-.1 1.8-.2 3-.3v3.2zM548.6 296c-1.2.1-1.8.2-3 .3v-3.2c1.2-.1 1.8-.1 3-.2v3.1zM553.7 295.6c-1.2.1-1.8.2-3 .3v-3.2c1.2-.1 1.8-.1 3-.2v3.1zM558.9 295.2c-1.2.1-1.8.1-3 .2v-3.2c1.2-.1 1.8-.1 3-.2v3.2zM543.4 302.6c-1.2.1-1.8.2-3 .3v-3.2c1.2-.1 1.8-.2 3-.3v3.2zM548.6 302.1c-1.2.1-1.8.2-3 .3v-3.2c1.2-.1 1.8-.2 3-.3v3.2zM553.7 301.7c-1.2.1-1.8.2-3 .3v-3.2c1.2-.1 1.8-.2 3-.3v3.2zM558.9 301.2c-1.2.1-1.8.2-3 .3v-3.2c1.2-.1 1.8-.2 3-.3v3.2zM543.4 308.7c-1.2.1-1.8.2-3 .3v-3.2c1.2-.1 1.8-.2 3-.3v3.2zM548.6 308.2c-1.2.1-1.8.2-3 .3v-3.2c1.2-.1 1.8-.2 3-.3v3.2zM553.7 307.7c-1.2.1-1.8.2-3 .3v-3.2c1.2-.1 1.8-.2 3-.3v3.2z"/><path class="st24" d="M558.9 307.3c-1.2.1-1.8.2-3 .3v-3.2c1.2-.1 1.8-.2 3-.3v3.2z"/><ellipse class="st19" cx="530.6" cy="262.8" rx="1.9" ry="2"/><ellipse class="st19" cx="531.7" cy="298.4" rx="1.9" ry="2"/><circle class="st92" cx="395.3" cy="201.3" r="2.2"/><circle class="st92" cx="395.3" cy="236.4" r="2.2"/><path class="st15" d="M320.8 321.2c-.5-73-.9-109.7-1.3-182.7 0-5.3.9-8.1 8.3-8.7 18.5-1.3 51.6-4.3 51.6-4.3 19.8 2.2 39.8 2.4 57.5 4.1 1.5.1 2.7.5 2.7 2 0 67.8.8 133.7.8 201.5 0 1.5-1.2 2.8-2.7 3-23.4 2.2-35.4 2.3-58.8 4.6L326.8 327c-2.5-.4-5.9-1.5-6-5.8z"/><path class="st16" d="M372.6 333.8c-.3-66.3-.5-128.6-.8-195 0-7 5.1-12 11.4-11.4 26.5 2.7 52.9 2.2 79.4 4.5 6.5.5 11.8 6.3 11.8 13 0 60.2-.1 121.3-.1 181.5 0 3.6-2.9 6.7-6.4 7-29.7 2.4-59.4 3.3-89 6.4-3.5.3-6.3-2.4-6.3-6z"/><path class="st17" d="m468.5 334.4-89 6.3c-1.3.1-2.5-.1-3.6-.6-2.4-1.1-4-3.6-4-6.6-.3-66.4-.5-128.8-.8-195.1 0-3.8 1.3-7.2 3.7-9.6 2.4-2.4 5.6-3.5 9-3.1 0 0 52.9 2.3 79.4 4.6 3.5.3 6.8 2 9.3 4.7 2.5 2.7 3.8 6.2 3.8 9.8 0 60.1 0 121.1-.1 181.2.1 4.3-3.4 8-7.7 8.4zm-84.8-205.8c-2.7-.3-5.2.6-7.1 2.5-1.9 1.9-2.9 4.6-2.9 7.5.3 66.2.5 128.4.8 194.6 0 1.4.5 2.6 1.5 3.5.9.9 2.2 1.3 3.5 1.2 29.6-3 59.3-4 89-6.3 2.8-.2 5.1-2.7 5.1-5.5 0-60.2.1-121.4.1-181.6 0-2.8-1.1-5.6-3.1-7.8s-4.6-3.5-7.4-3.7c-26.5-2.2-79.5-4.4-79.5-4.4z"/><path class="st18" d="M374 135.9c.1 11.7.1 34 .1 34l32.8 1c.5 0 1.1-.2 1.5-.6.6-.6.9-.9 1.5-1.6.4-.4.9-.6 1.4-.6 8 .5 12.1.7 20.1 1.2.5 0 1.1.3 1.5.7.6.7.9 1 1.5 1.7.4.4.9.7 1.4.7 10.7.6 16 .9 26.7 1.4 2.4.1 4.3-1.8 4.3-4.2V145c0-2.4-1.9-4.5-4.3-4.7l-88.3-4.8c.1.1-.2.2-.2.4zM374.2 176.1c.1 12 .1 22.1.2 34.1 11 .2 22 .3 33 .4.5 0 1.1-.2 1.4-.6.6-.7.9-1 1.5-1.6.4-.4.9-.6 1.4-.6 8 .1 12 .2 20.1.3.5 0 1.1.3 1.4.7.6.7.9 1 1.5 1.6.4.4.9.7 1.4.7 10.7.1 16 .2 26.7.3 2.4 0 4.3-1.9 4.3-4.4v-23.7c0-2.4-1.9-4.5-4.3-4.6-29.5-1.4-59-1-88.6-2.6z"/><path class="st19" d="M436.2 188.3c-1.3-.1-2-.1-3.4-.1v-3.6c1.3.1 2 .1 3.4.1v3.6z"/><path class="st20" d="M441.9 188.6c-1.3 0-2-.1-3.4-.1v-3.6c1.3.1 2 .1 3.4.1v3.6z"/><path class="st19" d="M447.6 188.8c-1.3 0-2-.1-3.4-.1v-3.5c1.3.1 2 .1 3.4.1v3.5zM453.3 189c-1.3 0-2-.1-3.4-.1v-3.5c1.3.1 2 .1 3.4.1v3.5zM459.1 189.2c-1.3 0-2-.1-3.4-.1v-3.5c1.3.1 2 .1 3.4.1v3.5zM436.2 195.1c-1.3 0-2-.1-3.4-.1v-3.6c1.3 0 2 .1 3.4.1v3.6zM441.9 195.3c-1.3 0-2-.1-3.4-.1v-3.6c1.3 0 2 .1 3.4.1v3.6zM447.6 195.5c-1.3 0-2-.1-3.4-.1v-3.5c1.3 0 2 .1 3.4.1v3.5zM453.3 195.6c-1.3 0-2-.1-3.4-.1V192c1.3 0 2 .1 3.4.1v3.5zM459.1 195.8c-1.3 0-2-.1-3.4-.1v-3.5c1.3 0 2 .1 3.4.1v3.5zM436.2 202c-1.3 0-2 0-3.4-.1v-3.6c1.3 0 2 .1 3.4.1v3.6zM441.9 202.1c-1.3 0-2 0-3.4-.1v-3.6c1.3 0 2 .1 3.4.1v3.6zM447.6 202.2c-1.3 0-2 0-3.4-.1v-3.6c1.3 0 2 .1 3.4.1v3.6zM453.3 202.3c-1.3 0-2 0-3.4-.1v-3.5c1.3 0 2 .1 3.4.1v3.5z"/><path class="st21" d="M459.1 202.4c-1.3 0-2 0-3.4-.1v-3.5c1.3 0 2 0 3.4.1v3.5z"/><path class="st19" d="M413 187.4c-1.3-.1-2-.1-3.4-.1v-3.7c1.3.1 2 .1 3.4.1v3.7zM418.7 187.7c-1.3-.1-2-.1-3.4-.1v-3.7c1.3.1 2 .1 3.4.1v3.7zM424.5 187.9c-1.3-.1-2-.1-3.4-.1v-3.6c1.3.1 2 .1 3.4.1v3.6zM430.2 188.1c-1.3-.1-2-.1-3.4-.1v-3.6c1.3.1 2 .1 3.4.1v3.6zM413.1 194.4c-1.3 0-2-.1-3.4-.1v-3.7c1.3 0 2 .1 3.4.1-.1 1.5-.1 2.3 0 3.7zM418.8 194.6c-1.3 0-2-.1-3.4-.1v-3.7c1.3 0 2 .1 3.4.1v3.7zM424.5 194.8c-1.3 0-2-.1-3.4-.1v-3.6c1.3 0 2 .1 3.4.1v3.6z"/><path class="st22" d="M430.2 195c-1.3 0-2-.1-3.4-.1v-3.6c1.3 0 2 .1 3.4.1v3.6z"/><path class="st19" d="M413.1 201.4c-1.3 0-2 0-3.4-.1v-3.7c1.3 0 2 .1 3.4.1v3.7zM418.8 201.6c-1.3 0-2 0-3.4-.1v-3.7c1.3 0 2 .1 3.4.1v3.7zM424.5 201.7c-1.3 0-2 0-3.4-.1V198c1.3 0 2 .1 3.4.1v3.6zM430.2 201.8c-1.3 0-2 0-3.4-.1v-3.6c1.3 0 2 .1 3.4.1v3.6zM436.2 149c-1.3-.1-2-.2-3.4-.3v-3.5c1.3.1 2 .2 3.4.3v3.5zM441.9 149.4c-1.3-.1-2-.2-3.4-.3v-3.5c1.3.1 2 .2 3.4.3v3.5zM447.6 149.9c-1.3-.1-2-.2-3.4-.3v-3.5c1.3.1 2 .2 3.4.3v3.5z"/><path class="st22" d="M453.4 150.3c-1.3-.1-2-.1-3.4-.2v-3.5c1.3.1 2 .2 3.4.3v3.4z"/><path class="st19" d="M459.1 150.7c-1.3-.1-2-.1-3.4-.2V147c1.3.1 2 .2 3.4.3v3.4z"/><path class="st21" d="M436.2 155.7c-1.3-.1-2-.1-3.4-.2v-3.6c1.3.1 2 .2 3.4.3v3.5z"/><path class="st19" d="M441.9 156.1c-1.3-.1-2-.1-3.4-.2v-3.5c1.3.1 2 .1 3.4.2v3.5zM447.6 156.5c-1.3-.1-2-.1-3.4-.2v-3.5c1.3.1 2 .1 3.4.2v3.5zM453.4 156.9c-1.3-.1-2-.1-3.4-.2v-3.5c1.3.1 2 .1 3.4.2v3.5zM459.1 157.3c-1.3-.1-2-.1-3.4-.2v-3.5c1.3.1 2 .1 3.4.2v3.5zM436.2 162.5c-1.3-.1-2-.1-3.4-.2v-3.6c1.3.1 2 .1 3.4.2v3.6zM441.9 162.8c-1.3-.1-2-.1-3.4-.2v-3.5c1.3.1 2 .1 3.4.2v3.5zM447.6 163.2c-1.3-.1-2-.1-3.4-.2v-3.5c1.3.1 2 .1 3.4.2v3.5zM453.4 163.6c-1.3-.1-2-.1-3.4-.2v-3.5c1.3.1 2 .1 3.4.2v3.5z"/><path class="st23" d="M459.1 163.9c-1.3-.1-2-.1-3.4-.2v-3.5c1.3.1 2 .1 3.4.2v3.5z"/><path class="st19" d="M413 147.1c-1.3-.1-2-.2-3.4-.3v-3.6c1.3.1 2 .2 3.4.3v3.6zM418.7 147.6c-1.3-.1-2-.2-3.4-.3v-3.6c1.3.1 2 .2 3.4.3v3.6z"/><path class="st24" d="M424.4 148.1c-1.3-.1-2-.2-3.4-.3v-3.6c1.3.1 2 .2 3.4.3v3.6z"/><path class="st19" d="M430.2 148.5c-1.3-.1-2-.2-3.4-.3v-3.6c1.3.1 2 .2 3.4.3v3.6zM413 154c-1.3-.1-2-.2-3.4-.3v-3.6c1.3.1 2 .2 3.4.3v3.6zM418.7 154.4c-1.3-.1-2-.2-3.4-.3v-3.6c1.3.1 2 .2 3.4.3v3.6zM424.4 154.9c-1.3-.1-2-.1-3.4-.2v-3.6c1.3.1 2 .2 3.4.3v3.5zM430.2 155.3c-1.3-.1-2-.1-3.4-.2v-3.6c1.3.1 2 .2 3.4.3v3.5zM413 160.9c-1.3-.1-2-.1-3.4-.2v-3.6c1.3.1 2 .1 3.4.2v3.6z"/><path class="st20" d="M418.7 161.3c-1.3-.1-2-.1-3.4-.2v-3.6c1.3.1 2 .1 3.4.2v3.6z"/><path class="st19" d="M424.4 161.7c-1.3-.1-2-.1-3.4-.2v-3.6c1.3.1 2 .1 3.4.2v3.6zM430.2 162.1c-1.3-.1-2-.1-3.4-.2v-3.6c1.3.1 2 .1 3.4.2v3.6zM401.1 187.7c0 1.4-1 2.5-2.2 2.4-1.2 0-2.3-1.2-2.3-2.6 0-1.4 1-2.5 2.2-2.4 1.2.1 2.3 1.2 2.3 2.6z"/><path class="st18" d="M374.4 215.4c0 12.1.1 24.1.1 36.2 10.8-.4 21.7-.7 32.5-1.1.5 0 1.1-.3 1.4-.7.6-.7.9-1 1.5-1.7.4-.4.9-.7 1.4-.7 8-.2 12-.4 20-.6.5 0 1.1.2 1.4.6.6.6.9.9 1.5 1.6.4.4.9.6 1.4.6 10.7-.3 16-.5 26.7-.8 2.4-.1 4.3-2.1 4.3-4.5v-23.7c0-2.4-1.9-4.4-4.3-4.4-29.1-.4-58.5-.6-87.9-.8zM462.5 253.2c-29.3 1-58.7 2.2-88 3.4 0 11.8.1 23.6.1 35.4l32.4-2.4c.5 0 1.1-.3 1.4-.8.6-.7.9-1 1.5-1.7.4-.4.9-.7 1.4-.8 8-.6 12-.8 20-1.4.5 0 1.1.2 1.4.5l1.5 1.5c.4.4.9.6 1.4.5 10.6-.7 16-1.1 26.7-1.8 2.4-.1 4.3-2.2 4.3-4.7v-23.6c.2-2.2-1.7-4.1-4.1-4.1zM462.5 290.4c-29.3 2-58.9 3.8-88.2 6.1 0 11.3.2 33.5.2 33.5l32.7-2.3c.5-.1 1.1-.3 1.4-.8.6-.7.9-1 1.5-1.7.4-.4.9-.7 1.4-.8 7.9-.8 11.9-1.1 19.9-1.9.5 0 1.1.1 1.4.5.6.6.9.9 1.5 1.4.4.4.9.5 1.4.5 10.6-1 15.9-1.4 26.7-2.3 2.4-.2 4.3-2.3 4.3-4.7v-23.5c.1-2.3-1.8-4.1-4.2-4z"/><path class="st94" d="M390.6 149c0 1.9-1.4 3.4-3.1 3.2-1.7-.1-3.2-1.8-3.2-3.7 0-1.9 1.4-3.4 3.1-3.2 1.8.1 3.2 1.8 3.2 3.7z"/><path class="st95" d="M389.7 160.8c0 1.4-1 2.4-2.2 2.3-1.2-.1-2.3-1.3-2.3-2.7 0-1.4 1-2.4 2.2-2.3 1.3.2 2.3 1.4 2.3 2.7z"/><path class="st96" d="M390.7 187.1c0 2-1.4 3.5-3.1 3.4-1.7-.1-3.1-1.7-3.2-3.7 0-2 1.4-3.5 3.1-3.4 1.8.1 3.2 1.7 3.2 3.7z"/><path class="st94" d="M389.8 199.2c0 1.4-1 2.5-2.2 2.5-1.2 0-2.3-1.2-2.3-2.6 0-1.4 1-2.5 2.2-2.5 1.3 0 2.3 1.2 2.3 2.6z"/><path class="st95" d="M390.8 227.7c0 2-1.4 3.6-3.1 3.6-1.7 0-3.1-1.6-3.1-3.5 0-2 1.4-3.6 3.1-3.6 1.7-.1 3.1 1.5 3.1 3.5z"/><path d="M390 239.9c0 1.4-1 2.6-2.2 2.6-1.2 0-2.2-1.1-2.2-2.5s1-2.6 2.2-2.6c1.1-.1 2.2 1.1 2.2 2.5z" style="fill:none;stroke:#fff;stroke-width:1.0879;stroke-miterlimit:10"/><path class="st19" d="M401.1 227.4c0 1.4-1 2.5-2.2 2.5-1.2 0-2.2-1.1-2.3-2.5 0-1.4 1-2.5 2.2-2.5 1.3 0 2.3 1.1 2.3 2.5z"/><path d="M390.9 268c0 1.9-1.4 3.6-3.1 3.7-1.7.1-3.1-1.4-3.1-3.3s1.4-3.6 3.1-3.7c1.7-.1 3.1 1.4 3.1 3.3z" style="fill:none;stroke:#f7dea4;stroke-miterlimit:10"/><path class="st95" d="M390.1 280c0 1.4-1 2.6-2.2 2.6-1.2.1-2.2-1-2.2-2.3 0-1.4 1-2.6 2.2-2.6 1.2-.1 2.2 1 2.2 2.3zM391 307.4c0 1.9-1.4 3.5-3.1 3.7-1.7.2-3.1-1.2-3.1-3.1 0-1.9 1.4-3.5 3.1-3.7s3.1 1.2 3.1 3.1z"/><path class="st96" d="M390.2 319c0 1.3-1 2.5-2.2 2.6-1.2.1-2.2-.9-2.2-2.2 0-1.3 1-2.5 2.2-2.6 1.2-.1 2.2.9 2.2 2.2z"/><path class="st37" d="M436.2 226.2h-3.4v-3.6h3.4v3.6z"/><path class="st19" d="M441.9 226.1h-3.4v-3.6h3.4v3.6zM447.6 226.1h-3.4v-3.6h3.4v3.6zM453.3 226.1h-3.4v-3.5h3.4v3.5z"/><path class="st20" d="M459 226h-3.4v-3.5h3.4v3.5z"/><path class="st19" d="M436.2 233h-3.4v-3.6h3.4v3.6zM441.9 232.9h-3.4v-3.6h3.4v3.6z"/><path class="st38" d="M447.6 232.8h-3.4v-3.5h3.4v3.5z"/><path class="st19" d="M453.3 232.7h-3.4v-3.5h3.4v3.5zM459 232.7h-3.4v-3.5h3.4v3.5zM436.2 239.8c-1.3 0-2 0-3.4.1v-3.6c1.3 0 2 0 3.4-.1v3.6zM441.9 239.7c-1.3 0-2 0-3.4.1v-3.6c1.3 0 2 0 3.4-.1v3.6zM447.6 239.5c-1.3 0-2 0-3.4.1v-3.5c1.3 0 2 0 3.4-.1v3.5zM453.3 239.4c-1.3 0-2 0-3.4.1V236c1.3 0 2 0 3.4-.1v3.5zM459 239.3c-1.3 0-2 0-3.4.1v-3.5c1.3 0 2 0 3.4-.1v3.5zM413.1 226.3h-3.3v-3.7h3.3v3.7zM418.8 226.3h-3.3v-3.7h3.3v3.7zM424.5 226.2h-3.4v-3.6h3.4v3.6zM430.2 226.2h-3.4v-3.6h3.4v3.6zM413.1 233.3h-3.3v-3.7h3.3v3.7zM418.8 233.2h-3.3v-3.7h3.3v3.7zM424.5 233.1h-3.3v-3.6h3.3v3.6zM430.2 233.1h-3.4v-3.6h3.4v3.6zM413.1 240.3c-1.3 0-2 0-3.3.1v-3.7c1.3 0 2 0 3.3-.1v3.7zM418.8 240.2c-1.3 0-2 0-3.3.1v-3.7c1.3 0 2 0 3.3-.1v3.7zM424.5 240c-1.3 0-2 0-3.3.1v-3.6c1.3 0 2 0 3.3-.1v3.6zM430.2 239.9c-1.3 0-2 0-3.3.1v-3.6c1.3 0 2 0 3.4-.1-.1 1.4-.1 2.2-.1 3.6zM436.2 264c-1.3.1-2 .1-3.3.2v-3.6c1.3-.1 2-.1 3.3-.2v3.6zM441.9 263.7c-1.3.1-2 .1-3.4.2v-3.6c1.3-.1 2-.1 3.4-.1v3.5zM447.6 263.5c-1.3.1-2 .1-3.4.2v-3.5c1.3-.1 2-.1 3.4-.1v3.4z"/><path class="st39" d="M453.3 263.2c-1.3.1-2 .1-3.4.2v-3.5c1.3-.1 2-.1 3.4-.1v3.4z"/><path class="st19" d="M459 262.9c-1.3.1-2 .1-3.4.2v-3.5c1.3-.1 2-.1 3.4-.1v3.4zM436.2 270.8c-1.3.1-2 .1-3.3.2v-3.6c1.3-.1 2-.1 3.3-.2v3.6zM441.9 270.5c-1.3.1-2 .1-3.4.2v-3.5c1.3-.1 2-.1 3.4-.2v3.5zM447.6 270.1c-1.3.1-2 .1-3.4.2v-3.5c1.3-.1 2-.1 3.4-.2v3.5zM453.3 269.8c-1.3.1-2 .1-3.4.2v-3.5c1.3-.1 2-.1 3.4-.2v3.5zM459 269.6c-1.3.1-2 .1-3.4.2v-3.5c1.3-.1 2-.1 3.4-.2v3.5z"/><path class="st38" d="M436.2 277.5c-1.3.1-2 .1-3.3.2v-3.6c1.3-.1 2-.1 3.3-.2v3.6z"/><path class="st19" d="M441.9 277.2c-1.3.1-2 .1-3.4.2v-3.5c1.3-.1 2-.1 3.4-.2v3.5zM447.6 276.8c-1.3.1-2 .1-3.4.2v-3.5c1.3-.1 2-.1 3.4-.2v3.5zM453.3 276.5c-1.3.1-2 .1-3.4.2v-3.5c1.3-.1 2-.1 3.4-.2v3.5z"/><path class="st21" d="M459 276.2c-1.3.1-2 .1-3.4.2v-3.5c1.3-.1 2-.1 3.4-.2v3.5z"/><path class="st19" d="M413.1 265.2c-1.3.1-2 .1-3.3.2v-3.7c1.3-.1 2-.1 3.3-.2v3.7zM418.8 264.9c-1.3.1-2 .1-3.3.2v-3.6c1.3-.1 2-.1 3.3-.2v3.6zM424.5 264.6c-1.3.1-2 .1-3.3.2v-3.6c1.3-.1 2-.1 3.3-.2v3.6zM430.2 264.3c-1.3.1-2 .1-3.3.2v-3.6c1.3-.1 2-.1 3.3-.2v3.6zM413.2 272.1c-1.3.1-2 .1-3.3.2v-3.6c1.3-.1 2-.1 3.3-.2-.1 1.4-.1 2.1 0 3.6zM418.8 271.7c-1.3.1-2 .1-3.3.2v-3.6c1.3-.1 2-.1 3.3-.2v3.6zM424.5 271.4c-1.3.1-2 .1-3.3.2V268c1.3-.1 2-.1 3.3-.2v3.6zM430.2 271.1c-1.3.1-2 .1-3.3.2v-3.6c1.3-.1 2-.1 3.3-.2v3.6zM413.2 279c-1.3.1-2 .1-3.3.2v-3.6c1.3-.1 2-.1 3.3-.2v3.6zM418.8 278.6c-1.3.1-2 .1-3.3.2v-3.6c1.3-.1 2-.1 3.3-.2v3.6zM424.5 278.2c-1.3.1-2 .1-3.3.2v-3.6c1.3-.1 2-.1 3.3-.2v3.6zM430.2 277.9c-1.3.1-2 .1-3.3.2v-3.6c1.3-.1 2-.1 3.3-.2v3.6z"/><path class="st21" d="M436.2 302.6c-1.3.1-2 .2-3.3.3v-3.5c1.3-.1 2-.2 3.3-.3v3.5z"/><path class="st19" d="M441.9 302.1c-1.3.1-2 .2-3.3.3v-3.5c1.3-.1 2-.2 3.3-.3v3.5zM447.6 301.7c-1.3.1-2 .2-3.4.3v-3.5c1.3-.1 2-.2 3.4-.3v3.5zM453.3 301.3c-1.3.1-2 .2-3.4.3v-3.5c1.3-.1 2-.1 3.4-.2v3.4zM459 300.8c-1.3.1-2 .1-3.4.2v-3.5c1.3-.1 2-.1 3.4-.2v3.5zM436.2 309.2c-1.3.1-2 .2-3.3.3V306c1.3-.1 2-.2 3.3-.3v3.5zM441.9 308.8c-1.3.1-2 .2-3.3.3v-3.5c1.3-.1 2-.2 3.3-.3v3.5zM447.6 308.3c-1.3.1-2 .2-3.4.3v-3.5c1.3-.1 2-.2 3.4-.3v3.5zM453.3 307.8c-1.3.1-2 .2-3.4.3v-3.5c1.3-.1 2-.2 3.4-.3v3.5zM459 307.4c-1.3.1-2 .2-3.4.3v-3.5c1.3-.1 2-.2 3.4-.3v3.5zM436.2 315.8c-1.3.1-2 .2-3.3.3v-3.5c1.3-.1 2-.2 3.3-.3v3.5zM441.9 315.4c-1.3.1-2 .2-3.3.3v-3.5c1.3-.1 2-.2 3.3-.3v3.5zM447.6 314.9c-1.3.1-2 .2-3.4.3v-3.5c1.3-.1 2-.2 3.4-.3v3.5zM453.3 314.4c-1.3.1-2 .2-3.4.3v-3.5c1.3-.1 2-.2 3.4-.3v3.5zM459 313.9c-1.3.1-2 .2-3.4.3v-3.4c1.3-.1 2-.2 3.4-.3v3.4zM413.2 304.5c-1.3.1-2 .2-3.3.3v-3.6c1.3-.1 2-.2 3.3-.3v3.6zM418.9 304c-1.3.1-2 .2-3.3.3v-3.6c1.3-.1 2-.2 3.3-.3v3.6zM424.5 303.5c-1.3.1-2 .2-3.3.3v-3.5c1.3-.1 2-.2 3.3-.3v3.5zM430.2 303.1c-1.3.1-2 .2-3.3.3v-3.5c1.3-.1 2-.2 3.3-.3v3.5zM413.2 311.2c-1.3.1-2 .2-3.3.3V308c1.3-.1 2-.2 3.3-.3v3.5zM418.9 310.7c-1.3.1-2 .2-3.3.3v-3.5c1.3-.1 2-.2 3.3-.3v3.5zM424.5 310.2c-1.3.1-2 .2-3.3.3V307c1.3-.1 2-.2 3.3-.3v3.5zM430.2 309.7c-1.3.1-2 .2-3.3.3v-3.5c1.3-.1 2-.2 3.3-.3v3.5zM413.2 317.9c-1.3.1-2 .2-3.3.3v-3.5c1.3-.1 2-.2 3.3-.3v3.5zM418.9 317.4c-1.3.1-2 .2-3.3.3v-3.5c1.3-.1 2-.2 3.3-.3v3.5zM424.5 316.9c-1.3.1-2 .2-3.3.3v-3.5c1.3-.1 2-.2 3.3-.3v3.5z"/><path class="st24" d="M430.2 316.4c-1.3.1-2 .2-3.3.3v-3.5c1.3-.1 2-.2 3.3-.3v3.5z"/><path d="M531.7 298.4c19.9 56.5-126.8 47.6-124-20.3 1.8-42.1 0-32.3 0-42 0-5.8-3.8-9.3-9.3-9.3" style="fill:none;stroke:#fda533;stroke-width:1.53;stroke-linecap:round;stroke-linejoin:round;stroke-miterlimit:10"/><path d="M530.9 262.5c49 78.9-110.2 114.7-113.4 9.2-1.3-42.1 12.9-84-19.1-84" style="fill:none;stroke:#fff;stroke-width:1.53;stroke-linecap:round;stroke-linejoin:round;stroke-miterlimit:10"/><path class="st48" d="M566.1 157.6c-1 .4-1.7 2.3-2.5 3.1l2.3 2.8c.3-.9 2-1.9 3.4-2.3 1-.3 4.3-2.4 5.7-3.5 1.9-1.6 1.2-3.7.5-3.5-2.5.9-5.4 1.7-9.4 3.4z"/><path class="st59" d="M563.6 156.5s3.1.3 4.7-.1c.8-.2 6.5-1.8 7.2-2.4"/><linearGradient id="SVGID_11_" gradientUnits="userSpaceOnUse" x1="623.254" y1="781.644" x2="635.379" y2="714.488" gradientTransform="matrix(1 -.00133 -.00133 .919 -5.994 -364.445)"><stop offset="0" style="stop-color:#09084d;stop-opacity:0"/><stop offset="1" style="stop-color:#09084d"/></linearGradient><path style="fill:url(#SVGID_11_)" d="m645.4 316.4-138.7 34.2v14.6l123.2 2.3L731 328.7z"/><path class="st51" d="M734.7 271.6c4-2.1 2.8-14.4-.5-15.4-2.7-.9-3.7.1-7.8-.8-4.2-.9-4-1.9-6.8-2.5-3.9-.9-11.1 11.2-7.9 13 3.2 1.8 8-2.8 8-2.8l10.6 2.3s-.8 8.9 4.4 6.2z"/><path class="st52" d="m719.7 263.1.9-.9c.4-.4 1.1-.6 1.7-.5l6 1.4c.6.1 1.1.6 1.3 1.2l.4 1.2-10.3-2.4z"/><circle class="st53" cx="731.6" cy="261.3" r="1.9"/><circle class="st52" cx="731.3" cy="260.3" r="1.5"/><circle class="st53" cx="720.4" cy="258.3" r="1.9"/><circle class="st52" cx="720.1" cy="257.3" r="1.5"/><circle class="st54" cx="726.2" cy="257.6" r=".8"/><circle class="st55" cx="725.4" cy="260.2" r=".8"/><circle class="st56" cx="723.9" cy="258.5" r=".8"/><circle class="st57" cx="727.7" cy="259.5" r=".8"/><path class="st106" d="M705.4 311.8c2.3 2.1 5.3 5 8.5 7.8l11.8 7.8c.6.4 1.4.4 1.9 0 .8-.5 0-1.2-.5-2 0 0-7-13.3-9.4-15.7-3.5-3.3-18.4-13.2-18.4-13.2-3.8-2.5-10.7 4.4-10.3 9.4 6.1 1.4 13.3 3.2 16.4 5.9z"/><path d="m722.5 325.9 3.7 3 .6.6c2.5-1.2 11.4-6.1 10.9-7-1.4-2.7-5.2-2.5-10.6 2.4 0 0-1.2-2-1.8-2.9-.7.5-2 3.5-2.8 3.9z" style="fill:#551836"/><path d="M730.3 323.8c-2.2 1.7-3.5 4-4 5.1l.6.6.5.6c1.3-.1 3.4-1 5.6-2.4 3.2-2 5.3-4.3 4.8-5.2-.6-.8-3.8-1.6-7.5 1.3z" style="fill:#360e22"/><path class="st109" d="M672.4 332s-17.4-61.3-11.2-74c11-22.6 11.1-36.2 19.4-41.6 2-1.3 9.2-4.7 25.2 4.8 5.3 3.1 3.6 15.5 2.6 25.2-.6 6.1 6.2 29.8 9.6 45.3.3 1.4.6 2.7.8 3.9.5 2.7 1 6.8 1.1 8.5l5.5-2.1s9-2.9 12.4-.7c9.1 5.9-7.4 22.5-18.8 26.9-22.2 8.6-46.6 3.8-46.6 3.8z"/><path class="st106" d="M718.8 295.6c-4 .1-13.1 0-20.3-2.8l19.5-1.1c.3 1.4.5 2.7.8 3.9z"/><path class="st109" d="M682.4 281.3c10.2 11.7 15.7 10.7 26.3 11.9 15.5 1.7 24.7-4.3 26.7-18.7.1-.7-1.2-1-1.4-1-.1-.1 0 0 0 0-.3-.1-.7-1.4-.9-.1-2.1 12.3-16 9.2-21.3 3.7-21.9-22.7-42.1-10.3-29.4 4.2zM735.9 262l-2.4 4.6 1.7 1 2.2-3.2c.5-.7.2-2.2-1-2.3l-.5-.1z"/><path class="st109" d="m738.3 267.3.1-.2-1.9-1.6-.5.7-1.5-1.3-1.8 2.8c-.9-2-3-2.8-3-2.8-1.6.3-1.6 1.1-1.6 1.1s.9.5 1.8 1.6c.3.4.5 1.1.9 2.4.2.6.5 1.8 1.8 3.2 1.6 1.6 3.2 1.1 3.2 1.1 1-.2 1.9-1.5 2.5-2.4 1.4-2.3 1.7-3.1 1.7-3.1l-1.7-1.5z"/><path class="st110" d="M737.4 268.5c.1-.3.5-.8.9-1.5 0 0 .2.1.2.2-.4.4-1.1 1.3-1.1 1.3zM735.7 267c.1-.3.5-.8.9-1.5 0 0 .2.1.2.2-.4.4-1.1 1.3-1.1 1.3z"/><g id="Face_01_2_"><g id="Face_01-2_2_"><path class="st109" d="M696 216.7c3 .5 6.1 4.9 11.1 6.5s9.2 2.7 13.4 2.3c4.2-.4 7.7-2.9 7.8-1.6.1 1.2-6.1 14.6-16.2 17.5-7.4 2.1-22.4 1.9-29.7-7.2s1.6-19.6 13.6-17.5z"/><linearGradient id="SVGID_12_" gradientUnits="userSpaceOnUse" x1="830.362" y1="155.696" x2="788.323" y2="142.872" gradientTransform="matrix(.9992 .03944 .03944 -.9992 -99.66 342.567)"><stop offset=".09" style="stop-color:#ee811f"/><stop offset=".18" style="stop-color:#ee801f;stop-opacity:.98"/><stop offset=".3" style="stop-color:#ee801f;stop-opacity:.91"/><stop offset=".43" style="stop-color:#ee7e1f;stop-opacity:.8"/><stop offset=".57" style="stop-color:#ec7920;stop-opacity:.66"/><stop offset=".71" style="stop-color:#ec7420;stop-opacity:.46"/><stop offset=".87" style="stop-color:#eb6d22;stop-opacity:.23"/><stop offset="1" style="stop-color:#eb6723;stop-opacity:0"/></linearGradient><path d="M696 216.7c3 .5 6.1 4.9 11.1 6.5s9.2 2.7 13.4 2.3c4.2-.4 7.8-3 7.9-1.8.1 1.2-6.2 14.8-16.3 17.6-7.4 2.1-22.4 1.9-29.7-7.2s1.6-19.5 13.6-17.4z" style="fill:url(#SVGID_12_)"/><path class="st112" d="M722.9 225.1s4.5-3.6 5.2-3.1c.7.5 1 3.8-1.7 6.5-1.6 1.8-3.5-3.4-3.5-3.4z"/><ellipse transform="matrix(.02164 -.9998 .9998 .02164 471.844 942.843)" class="st113" cx="717.7" cy="230.3" rx="1.1" ry="1"/><circle transform="rotate(-87.74 715.29 232.623) scale(.99998)" class="st113" cx="715.3" cy="232.6" r=".6"/><circle transform="rotate(-87.74 718.155 233.28) scale(.99998)" class="st113" cx="718.2" cy="233.3" r=".9"/></g></g><path class="st109" d="M696.5 210.1s5.5 2.7-1.6 13.2h-6.5l2.6-4.4 5.5-8.8z"/><path class="st109" d="M694.4 222.6c.4-2.2 2.3-4 3.3-5.6 2-3.2-1.3-9.9-4.1-6.4-1.4 1.8-1.7 4.8-2.2 6.6l3 5.4z"/><ellipse transform="rotate(-84.1 704.73 224.3)" cx="704.7" cy="224.3" rx="5.2" ry="4.1" style="opacity:.62;fill:#e4580f;enable-background:new"/><path class="st5" d="M705.7 219.2c1.8.1 3.3 2.3 3.2 4.8-.1 2.6-1.6 4.6-3.5 4.5-1.8-.1-4-2.2-3.9-4.8.1-2.5 2.4-4.6 4.2-4.5z"/><ellipse transform="rotate(-5.407 707.286 223.445) scale(.99995)" cx="707.3" cy="223.5" rx="1.5" ry="3" style="fill:#88623a"/><path d="M708.8 223.3c.1 1.5-.4 2.7-1.1 2.8s-1.5-1.1-1.6-2.6c-.1-1.5.7 1.3 1.5 1.3.7-.1 1-3 1.2-1.5z" style="opacity:.4;fill:#d7a356;enable-background:new"/><ellipse transform="rotate(-5.407 707.558 223.113) scale(.99995)" class="st112" cx="707.6" cy="223.1" rx="1.1" ry="2.2"/><ellipse transform="rotate(-5.407 708.132 222.168) scale(.99995)" class="st5" cx="708.2" cy="222.2" rx=".2" ry=".3"/><path class="st109" d="M708.4 221s-5.3-4.9-7.7 4.5c-.7-3.2-.1-5.9 3.1-7 2.8-1 4.6 2.5 4.6 2.5z"/><path class="st117" d="M708.4 221c-1.4-.6-3-.3-4.6.8-1.2.8-2.3 2-3.1 3.6 0 0-.1-4.1 2.3-5.4 3.7-1.2 5.4 1 5.4 1"/><path class="st109" d="M708.4 221c-2.3-.9-5.8-.3-7.8 4.7 0 0-.9-4.8 2.6-6.3s5.2 1.6 5.2 1.6"/><path id="Mouth_2_" class="st5" d="M709.2 241.8c-2.3-.3-6.8-3.6-7.7-4.6-1.2-1.4-3.8-.6-2.7 2.5 1.1 3.3 5.3 3.2 5.7 3.2 2-.2 4.7-1.1 4.7-1.1z"/><path class="st117" d="M636.3 299.5c-6.2 0-20.5 6.9-20.6 9.5-.1 2.6 16.6-1.8 23.5-2.5l-2.9-7zM647.3 307.7c-6.2 0-20.5 6.9-20.6 9.5-.1 2.6 16.6-1.8 23.5-2.5l-2.9-7z"/><path class="st117" d="M645.1 299.1c-6.2 0-20.5 6.9-20.6 9.5s16.6-1.8 23.5-2.5l-2.9-7zM642.5 287.4c-6-1.3-21.8 2.3-22.6 4.8-.8 2.5 16.6 1.8 23.4 2.6l-.8-7.4z"/><path class="st118" d="M649.6 301.4c-6-1.3-21.8 2.3-22.6 4.8s16.6 1.8 23.4 2.6l-.8-7.4z"/><path class="st117" d="M673.1 234s7-5.1 10.5-6.3c6.4-2.3 22.3-5.9 4.2 5.9 0 0 35.5-11 2.8 3.8 0 0 31.9-7.8 3.7 4.7 0 0 31.4 2.3 3.2 7.2 0 0 21.1 3.1-1.3 8.2 0 0 17.8 3.7 1.3 4.6 0 0 34.2 5.7 1.2 7.2 0 0 30.2 10.2 1.2 8.4 0 0 28.8 10.2.3 6.3 0 0 33.2 8.2.7 7.2 0 0 25.5 7.2-1.7 7.5 0 0 23.3 13.9-2.1 4.6 0 0 21.3 15.5-5 5.8 0 0 20.9 19.7-5 5.4 0 0 14.5 17.9-5 4.9 0 0 6.4 13.1-3.5 2 0 0 7.6 17-3 1.9 0 0 6.1 17.4-4 .4 0 0 .5 21.7-5.2 3.1 0 0 4.2 24.3-5.3 2.2 0 0-8.5 19.3-9.4.2 0 0-1.5 17.2-6.8-.1 0 0-4 19.3-3.9-.5 0 0-14 14.9-8.7-1.8 0 0-12.8 6.1.7-8.4 0 0 25.9 7.6 40-8.5 14.1-16.1 15.9-32.4 11.4-54.4-5.2-25.8-.9-20.4-11.3-21.5z"/><path class="st118" d="M669.6 240.4c1.4-4 11.9-10.6 14.1-8.6 1 .9-1.4 2.5-4.7 9.9 0 0 23.9-11 2.4 3.3 0 0 31.8-5.6 3.2 4 0 0 26.8 1.9 2.7 6.1 0 0 34.2.6 1.9 5.8 0 0 15.2 3.1 1.1 4 0 0 29.2 4.8 1 6.1 0 0 25.7 8.7 1 7.2 0 0 24.5 8.7.2 5.4 0 0 28.3 7 .6 6.1 0 0 21.7 6.1-1.4 6.4 0 0 19.9 11.8-1.8 3.9 0 0 18.2 13.2-4.3 4.9 0 0 17.8 16.8-4.3 4.6 0 0 12.3 15.3-4.3 4.2 0 0 5.4 11.2-2.9 1.7 0 0 10 24.2-4.6 1.7 0 0 4 15.8-4.6 1.3 0 0 1.5 17.2-3.3 1.4 0 0 3.1 20.1-5 1.3 0 0 .5 22.9-5.4 1 0 0-1.3 14.7-5.8-.1 0 0-3.4 16.4-3.3-.4 0 0-12 12.7-7.4-1.6 0 0-13.9 7.1 2.7-6.9 0 0 20 6.3 32-7.5 12-13.7 22.2-30.7 9.7-46.3-8.8-11.2-11.2-14.1-9.5-18.9z"/><path class="st119" d="M695 255c0-.8-3.6-1.3-7.9-1.1-4.3.2-7.8 1-7.7 1.8 0 .8 3.6 1.3 7.9 1.1 4.2-.2 7.7-1 7.7-1.8zM690 246.9c-.4-.7-3.9 0-7.8 1.6s-6.8 3.5-6.4 4.2c.4.7 3.9 0 7.8-1.6 4-1.6 6.8-3.5 6.4-4.2zM681.5 239.2c-.6-.6-3.7 1.1-6.8 3.7-3.1 2.6-5.1 5.2-4.5 5.7.6.6 3.7-1.1 6.8-3.7 3.2-2.5 5.2-5.1 4.5-5.7zM697 267.6c0-.8-3.6-1.3-7.9-1.2-4.3.1-7.8.9-7.7 1.7 0 .8 3.6 1.3 7.9 1.2 4.3-.2 7.7-.9 7.7-1.7zM698.4 290.8c.2-.8-3-2.1-7.2-3-4.2-.8-7.8-.9-8-.1-.2.8 3 2.1 7.2 3 4.2.9 7.8.9 8 .1zM691.6 304.4c.2-.8-3-2.1-7.2-3-4.2-.8-7.8-.9-8-.1-.2.8 3 2.1 7.2 3 4.2.9 7.8.9 8 .1zM680.3 317.1c.8-.5-.5-3.3-3-6.4-2.4-3.1-5-5.2-5.7-4.8-.8.5.5 3.3 3 6.4s4.9 5.3 5.7 4.8zM665.4 321.2c.7-.1.7-2.5-.1-5.3-.7-2.8-1.9-5-2.6-4.8-.7.1-.7 2.5.1 5.3.8 2.7 1.9 4.9 2.6 4.8zM651 325.6c.7 0 1.4-2.3 1.6-5.2.2-2.9-.3-5.2-1-5.3-.7 0-1.4 2.3-1.6 5.2-.1 3 .3 5.3 1 5.3z"/><path class="st120" d="M668.5 246.8c1.1-1 11.7-9.6 6.2 1.1 0 0 20.2-9.2 2 2.8 0 0 26.8-4.8 2.7 3.4 0 0 22.6 1.6 2.3 5.2 0 0 28.9.5 1.6 4.9 0 0 12.8 2.7.9 3.3 0 0 24.6 4.1.9 5.1 0 0 21.7 7.3.9 6 0 0 20.6 7.3.2 4.5 0 0 23.8 5.9.5 5.1 0 0 18.3 5.2-1.2 5.4 0 0 16.7 10-1.5 3.3 0 0 15.3 11.1-3.6 4.2 0 0 15 14.2-3.6 3.9 0 0 10.4 12.9-3.6 3.5 0 0 4.6 9.4-2.5 1.5 0 0 8.4 20.4-3.9 1.4 0 0 3.4 13.3-3.9 1.1 0 0 1.3 14.5-2.8 1.2 0 0 2.6 16.9-4.2 1.1 0 0 .4 19.3-4.5.8 0 0-1.1 12.4-4.9-.1 0 0-2.9 13.8-2.8-.4 0 0-10.1 10.7-6.2-1.3 0 0-11.8 6 2.3-5.8 0 0 16.9 5.3 27-6.3 2.5-2.9 5.1-6 7.4-9.3 7.1-10 11.3-21.2.7-29-12.4-8.8-9.6-13.4-6.4-16.6z"/><path class="st119" d="M666.3 264.8s-3.1 1.5-.2 5.9c0 0-3.4-.8-1.1 2.4 0 0-4.9-.8-2.5 4.8 0 0-6-1.2-2.1 3.5 0 0-3.6-2.7-4.2 2.2 0 0-4.7-.3-1.6 4.1 0 0-7.8.4-4.3 6.3 0 0-5-.1-1.2 4.6 0 0-7.4-3.1-1.6 2.4 0 0-4.5.3-3 4.8 0 0-2.7-3.2-3.9 1.2 0 0-9.8 12 .2 5.6 0 0-5.6 10.5 4.4.3 0 0 .8 8 4.3-.3 0 0 6.6 8 5-1.2 0 0 7.7 8 4.4-2 0 0 12.6 9 5.4-2 0 0 10.2 5.8 3.1-2.4 0 0 10.4 5.6 3.3-2.9 0 0 12.6 10.3 2.7-2.9 0 0 16.7 4.2 3.1-3.5 0 0 14.5 4.9 2.1-4.1 0 0 8.6.2 2.3-3.9 0 0 17.3-1.2 1.4-3.5 0 0 18.9.7.8-4.3 0 0 10.5.9 1-3.7 0 0 12.7-.9.1-3.5 0 0 10.6-2.2-2.2-3.4 0 0 12.2-7.1-3-4.6 0 0 12-5.8-2.1-1.9 0 0 8.2-5-1.5-1.8 0 0 4.3-9.9-3.3-1.5 0 0 1-5.1-.2-5.3-2.5-.6-2.4 6.4-2.4 6.4s-7.8 1.1-7.7 2.9c.1 1.1 4.5 1.3 4.5 1.3z"/><path class="st119" d="M683.2 277.1c.1-.6-2.1-1.5-4.9-1.9-2.9-.4-5.3-.2-5.4.4-.1.6 2.1 1.5 4.9 1.9 2.8.4 5.3.2 5.4-.4zM683.3 293.7c.2-.5-2.3-1.6-5.5-2.5-3.2-.9-6-1.3-6.1-.8-.2.5 2.3 1.6 5.5 2.5 3.2 1 5.9 1.3 6.1.8zM684.5 282.8c.2-.6-1.9-1.7-4.7-2.4-2.8-.7-5.2-.7-5.4-.1-.2.6 1.9 1.7 4.7 2.4 2.8.7 5.2.7 5.4.1zM676.1 283.3c.2-.6-1.9-1.7-4.7-2.4-2.8-.7-5.2-.7-5.4-.1s1.9 1.7 4.7 2.4c2.8.7 5.2.7 5.4.1zM684.9 286c0-.6-2.9-1.1-6.4-.9-3.5.1-6.3.8-6.2 1.4 0 .6 2.9 1.1 6.4.9 3.4-.1 6.2-.7 6.2-1.4z"/><path class="st120" d="M681.7 278.9c-.1-.4-2.1-.4-4.5.1s-4.2 1.1-4.1 1.6c.1.4 2.1.4 4.5-.1s4.2-1.2 4.1-1.6zM679.7 289.9c.3-.4-1.2-1.6-3.3-2.7-2.1-1-4.1-1.5-4.4-1.1-.3.4 1.2 1.6 3.3 2.7 2.1 1.1 4.1 1.6 4.4 1.1zM675.8 294.5c.4-.3-.2-1.6-1.5-2.8-1.3-1.2-2.6-2-3.1-1.6-.4.3.3 1.6 1.5 2.8l.2.2c1.2 1.1 2.5 1.8 2.9 1.4zM653.2 303.8c.4-.3-.1-1.4-1.2-2.4-1.1-1-2.2-1.6-2.6-1.3-.4.3.1 1.4 1.2 2.4l.2.2c1 .9 2 1.4 2.4 1.1zM671.2 278.9c.4-.3-.2-1.6-1.5-2.8-1.3-1.2-2.6-2-3.1-1.6-.4.3.3 1.6 1.5 2.8l.2.2c1.2 1 2.5 1.7 2.9 1.4zM653.4 311c.6.1 1.2-1.2 1.4-2.9.2-1.6-.1-3-.6-3.1-.6-.1-1.2 1.2-1.4 2.9-.2 1.7 0 3.1.6 3.1zM657.1 292.2c.6.1 1.2-1.2 1.4-2.9.2-1.6-.1-3-.6-3.1-.6-.1-1.2 1.2-1.4 2.9-.2 1.7.1 3.1.6 3.1zM645.3 309.9c.2.2 1.6-.5 3-1.6 1.5-1.1 2.4-2.2 2.2-2.4-.2-.2-1.6.5-3 1.6s-2.4 2.2-2.2 2.4zM663.2 308.7c.4-.3-.3-1.6-1.5-2.8-1.3-1.2-2.6-2-3.1-1.6-.4.3.3 1.6 1.5 2.8 1.3 1.2 2.7 1.9 3.1 1.6z"/><path class="st119" d="M641.3 308.3c.4.4 1.9-.2 3.3-1.3s2.3-2.3 1.9-2.7c-.4-.4-1.9.2-3.3 1.3s-2.3 2.4-1.9 2.7z"/><path class="st120" d="M676.1 267.1c-.1-.4-1.4-.5-3-.2s-2.7.9-2.6 1.3c.1.4 1.4.5 3 .2 1.5-.3 2.7-.9 2.6-1.3zM673.8 295.5c-.1-.4-1.4-.5-3-.2s-2.7.9-2.6 1.3c.1.4 1.4.5 3 .2 1.5-.3 2.7-.9 2.6-1.3zM669.1 293.6c.1-.4-1-1.1-2.5-1.5-1.5-.4-2.9-.4-3 0-.1.4 1 1.1 2.5 1.5s2.9.4 3 0zM667.4 280.7c-.1-.4-1.4-.5-3-.2s-2.7.9-2.6 1.3c.1.4 1.4.5 3 .2 1.5-.3 2.7-.9 2.6-1.3zM646.1 307.3c.3 0 .6-.8.6-1.8s-.3-1.8-.6-1.8-.6.8-.6 1.8.3 1.8.6 1.8zM642.3 312c.3.1.9-.5 1.4-1.4.5-.9.6-1.7.3-1.8-.3-.1-.9.5-1.4 1.4-.5.8-.6 1.7-.3 1.8zM669.8 301.4c.2-.4-.8-1.2-2.2-1.7-1.4-.6-2.8-.7-3-.3s.8 1.2 2.2 1.7c1.5.5 2.8.7 3 .3z"/><path class="st120" d="M665.2 305.4c.5-.1.6-1.4.4-3-.3-1.6-.9-2.9-1.3-2.8-.5.1-.6 1.4-.4 3 .2 1.6.8 2.8 1.3 2.8zM674.9 284.8c.3-.3-.6-1.4-2.1-2.5-1.5-1-2.9-1.6-3.2-1.3-.3.3.6 1.4 2.1 2.5 1.5 1 2.9 1.6 3.2 1.3zM660.9 302.1c.4-.1.3-1.5-.3-3s-1.4-2.7-1.9-2.6c-.4.1-.3 1.5.3 3 .6 1.6 1.4 2.7 1.9 2.6zM678.6 272.7c-.1-.4-1.4-.5-3-.2s-2.7.9-2.6 1.3c.1.4 1.4.5 3 .2 1.5-.3 2.7-.9 2.6-1.3z"/><path class="st119" d="M678.6 270.1c.1-.6-1.8-1.4-4.3-1.8-2.5-.3-4.6-.1-4.7.5-.1.6 1.8 1.4 4.3 1.8 2.5.4 4.6.2 4.7-.5zM664.2 293.5c-.1-.6-2.2-.9-4.7-.6-2.5.3-4.4 1.1-4.3 1.8.1.6 2.2.9 4.7.6 2.5-.4 4.4-1.2 4.3-1.8zM670.7 288.6c.2-.6-1.6-1.6-4-2.2s-4.5-.6-4.7 0c-.2.6 1.6 1.6 4 2.2 2.4.7 4.5.7 4.7 0zM658.4 302.8c.4-.4-.7-1.9-2.4-3.4-1.8-1.5-3.6-2.5-4-2.1-.4.4.7 1.9 2.4 3.4 1.8 1.5 3.5 2.5 4 2.1zM673.7 301.8c.6-.4-.4-2.2-2.2-4-1.8-1.8-3.7-2.9-4.2-2.5-.6.4.4 2.2 2.2 4 1.8 1.8 3.7 2.9 4.2 2.5zM648.5 311.6c.5.1 1.4-1.3 2.1-3.1.6-1.8.7-3.4.2-3.6-.5-.1-1.4 1.3-2.1 3.1-.7 1.8-.8 3.4-.2 3.6zM670.7 305.8c.6-.4-.4-2.2-2.2-4-1.8-1.8-3.7-2.9-4.2-2.5-.6.4.4 2.2 2.2 4 1.7 1.8 3.6 2.9 4.2 2.5zM660.1 311.1c.6-.4-.4-2.2-2.2-4-1.8-1.8-3.7-2.9-4.2-2.5-.6.4.4 2.2 2.2 4 1.8 1.8 3.6 2.9 4.2 2.5zM668.4 307.1c.2-.5-2.3-1.6-5.5-2.5-3.2-.9-6-1.3-6.1-.8-.2.5 2.3 1.6 5.5 2.5 3.2.9 5.9 1.3 6.1.8z"/><path class="st120" d="M672.2 271.4c-.1-.4-1.4-.5-3-.2s-2.7.9-2.6 1.3c.1.4 1.4.5 3 .2 1.5-.3 2.7-.9 2.6-1.3zM664.7 288.5c.4-.3-.2-1.6-1.5-2.8-1.3-1.2-2.6-2-3.1-1.6-.4.3.3 1.6 1.5 2.8l.2.2c1.2 1.1 2.4 1.8 2.9 1.4zM668.7 289.4c.5-.1.6-1.4.4-3-.3-1.6-.9-2.9-1.3-2.8-.5.1-.6 1.4-.4 3 .2 1.6.8 2.9 1.3 2.8zM664 297.5c.4-.3-.2-1.6-1.5-2.8-1.3-1.2-2.6-2-3.1-1.6-.4.3.3 1.6 1.5 2.8 1.3 1.2 2.6 1.9 3.1 1.6zM656.8 294.3c.1-.4-1-1.1-2.5-1.5s-2.9-.4-3 0c-.1.4 1 1.1 2.5 1.5 1.5.3 2.9.4 3 0zM655 301.8c.5-.1.6-1.4.4-3-.3-1.6-.9-2.9-1.3-2.8-.5.1-.6 1.4-.4 3 .2 1.6.8 2.8 1.3 2.8z"/><path class="st117" d="M672 322.9s-1.4 9.8-5.1 12c-4 5.4-10.1 8.7-6.8-5.8 0 0-23.2 11.8-4.5-3.8 0 0-35.7 15.8-5.9-4.5 0 0-38.2 4.2-6-7.5 0 0-48.2 7.9-4.7-7.2 0 0-22.4-.3-3-5 0 0-42.6 1-3.7-7.9 0 0-39.2-5.1-4-9.3 0 0-37.4-5.4-2.3-7.1 0 0-42.1-2.1-3.1-8 0 0-32.6-2.7-.3-8.9 0 0-32.1-10.7 1.1-5.7 0 0-30.2-13 4.2-7.7 0 0-31-17.9 4.3-7.2 0 0-22.7-17.3 4.5-6.7 0 0-11.6-13.6 3.5-3.1 0 0-22.6-29.7 5.8-3.5 0 0-11.3-20.1 5.9-3 0 0-8.3-22.6 4.2-2.7 0 0-11.5-26.1 6.5-3.1 0 0-8.9-30.5 7.2-2.7 0 0-3.4-19.9 8.1-1.3 0 0-1.1-22.8 4.8-.3 0 0 12.2-20 10.9.2 0 0 13.4-9.7 1.7 9.7 0 0-33.3-3-45.2 18.4-11.9 21.4-9.1 40.3 3 64.4 11.8 22.9 18.9 17.3 18.9 17.3z"/><path class="st117" d="M668.6 329c.6 1.6 5.9 7.3 8.2 6.5 2.2-.8-2.7-7.8-3.5-8.8-.7-.9 7.7 8.8 9.7 8.1 1-.4-2.2-10.5-2.9-12.6-.7-2 4.2 7.1 6.2 7.2 2 0 .8-6 .5-8.4-.2-2.4-9.6-7.3-9.6-7.3l-8.6 15.3z"/><path class="st117" d="M685.2 319.7c5.3 10.7 2.1 10-2 3-4.1-7.1-7.3-3.2-3.1 2.9 4.2 6.1 2.4 8.4-3 1.6-5.4-6.7-8.9-5.5-4.7 2.8 5.3 10.5-.2 11.1-4.3 2.3l-.1-5 7.9-10.2 9.3 2.6z"/><path class="st118" d="M683.1 313.6c5.7 10.4 2.7 9.6-1.6 2.6-4.3-6.9-6.8-3.5-2.6 2.5 4.3 6 2.9 8-2.5 1.3s-8.6-5.8-4 2.3c5.7 10.2.8 10.4-3.7 1.9l-.5-4.7 6.2-9.1 8.7 3.2z"/><path class="st118" d="M674.2 318.3c-.4 5-1.6 17-8.7 17.8-1.5-.9-1.6-.4.1-9.9 0 0-25.3 18.5-3.8-3.3 0 0-36.3 14-5-4 0 0-32.5 3.8-5.1-6.7 0 0-41.1 7-4-6.4 0 0-19.1-.3-2.5-4.5 0 0-36.3.9-3.1-7 0 0-33.4-4.5-3.4-8.3 0 0-31.9-4.8-1.9-6.3 0 0-35.9-1.9-2.6-7.1 0 0-27.8-2.4-.2-8 0 0-27.3-9.6.9-5.1 0 0-25.7-11.6 3.6-6.8 0 0-26.3-15.9 3.7-6.4 0 0-19.3-15.4 3.8-6 0 0-9.9-12.1 3-2.7 0 0-19.2-26.5 5-3.1 0 0-9.6-17.9 5.1-2.6 0 0-7-20.1 3.6-2.4 0 0-9.8-23.2 5.6-2.7 0 0-7.6-27.2 6.1-2.4 0 0-2.9-17.7 6.9-1.2 0 0-.9-20.3 4.1-.3 0 0 10.4-17.8 9.3.2 0 0 14.5-11.6-1.1 8.9 0 0-25.8-2.9-36 16.2-10.1 19.1-17.2 41.7 2.5 57.4 13.9 11 14.6 6.6 14.1 12.7z"/><path class="st119" d="M642.5 314c.3.9 4.7.7 9.7-.4 5.1-1.2 9-2.9 8.7-3.9-.3-.9-4.7-.7-9.7.4-5.1 1.2-9 3-8.7 3.9zM650.8 322.5c.7.8 4.6-.8 8.8-3.6 4.2-2.8 7-5.7 6.3-6.4-.7-.8-4.6.8-8.8 3.6-4.1 2.7-7 5.6-6.3 6.4zM663.3 329.7c.9.5 4.1-2.1 7-5.9 2.9-3.8 4.5-7.3 3.6-7.9s-4.1 2.1-7 5.9c-2.9 3.9-4.5 7.4-3.6 7.9zM636.3 299.5c.3.9 4.6.8 9.7-.4 5.1-1.2 9-2.9 8.7-3.8-.3-.9-4.6-.8-9.7.4-5.1 1.1-9 2.8-8.7 3.8zM627.6 272.1c0 1 4.2 1.8 9.5 1.9 5.3.1 9.5-.7 9.6-1.7 0-1-4.2-1.8-9.5-1.9-5.4 0-9.6.7-9.6 1.7zM631.5 254.4c0 1 4.2 1.8 9.5 1.9 5.3.1 9.5-.7 9.6-1.7 0-1-4.2-1.8-9.5-1.9-5.3-.1-9.6.7-9.6 1.7zM641.3 236.7c-.8.7 1.7 3.8 5.5 7 3.8 3.1 7.5 5.1 8.3 4.4.8-.7-1.7-3.8-5.5-7s-7.6-5.1-8.3-4.4zM657.8 228.5c-.8.3 0 3.2 1.7 6.3 1.7 3.2 3.8 5.5 4.6 5.1.8-.3 0-3.2-1.7-6.3-1.8-3.2-3.9-5.5-4.6-5.1zM673.6 219.9c-.9.1-1 3.1-.3 6.5.7 3.5 1.9 6.2 2.8 6 .9-.1 1-3 .3-6.5s-2-6.2-2.8-6zM689.4 220.5c-.8-.3-2.6 2.2-4.1 5.5-1.5 3.3-2 6.2-1.2 6.4.8.3 2.6-2.2 4.1-5.5 1.5-3.2 2-6.1 1.2-6.4z"/><path class="st120" d="M676.6 317.7c-1 1.5-11.1 14.1-7.7 0 0 0-21.3 15.6-3.2-2.8 0 0-30.6 11.8-4.2-3.4 0 0-27.4 3.2-4.3-5.6 0 0-34.6 5.9-3.4-5.4 0 0-16.1-.2-2.1-3.8 0 0-30.6.7-2.6-5.9 0 0-28.1-3.8-2.9-7 0 0-26.9-4-1.6-5.3 0 0-30.2-1.6-2.2-6 0 0-23.4-2-.2-6.7 0 0-23-8.1.8-4.3 0 0-21.7-9.8 3-5.8 0 0-22.2-13.4 3.1-5.4 0 0-16.3-13 3.2-5.1 0 0-8.3-10.2 2.5-2.3 0 0-16.2-22.3 4.2-2.6 0 0-8.1-15.1 4.3-2.2 0 0-5.9-17 3-2 0 0-8.2-19.6 4.7-2.3 0 0-6.4-22.9 5.2-2 0 0-2.5-15 5.8-1 0 0-.8-17.1 3.4-.2 0 0 8.8-15 7.8.2 0 0 12.2-9.8-.9 7.5 0 0-21.8-2.5-30.3 13.6-2.1 4-4.3 8.3-6 12.7-5.4 13.5-7.1 27.8 8 34.7 17.4 7.8 15.5 13.9 12.6 18.4z"/><path class="st119" d="M673.8 295.7s3.2-2.5-1.6-7c0 0 4.3.2.6-3.1 0 0 6.1-.1 1.5-6.3 0 0 7.6.1 1.4-4.7 0 0 5.1 2.4 4.3-3.5 0 0 5.7-.8.7-5.2 0 0 9.1-2.3 3.2-8.4 0 0 5.9-1 .1-5.8 0 0 9.8 2 1.2-3.2 0 0 5.3-1.4 2.1-6.4 0 0 4.2 3.2 4.3-2.4 0 0 8-16.6-1.9-6.6 0 0 3.5-13.8-5.3.6 0 0-3.4-9.4-5.1 1.3 0 0-10.4-8-5.6 2.6 0 0-11.6-7.8-4.6 3.3 0 0-17.8-7.9-5.9 3.6 0 0-13.9-4.6-3 3.5 0 0-14.1-4.3-3.1 4.2 0 0-18.2-9.4-2.3 4.1 0 0-21.2-1.2-2.7 4.9 0 0-18.8-2.6-1.2 5.3 0 0-10.3 1.8-1.5 5.1 0 0-20.3 5.3-.6 4.5 0 0-22.8 3.4.4 5.3 0 0-12.8 1.3 0 4.6 0 0-14.9 4 .9 4.3 0 0-12 5 3.6 3.5 0 0-12.4 11.2 4.9 4.8 0 0-12.6 9.6 3.1 1.8 0 0-8.2 7.8 2.4 1.8 0 0-2.1 12.8 4.4 1 0 0 .4 6.3 1.8 6.3 3.2.1.9-8.1.9-8.1s9-3.1 8.4-5.2c-.4-1.2-5.8-.5-5.8-.5z"/><path class="st120" d="M667.6 277.1c.2.5 1.9.3 3.6-.4 1.8-.7 3-1.6 2.8-2.1-.2-.5-1.9-.3-3.6.4-1.8.7-3 1.6-2.8 2.1zM661 278.7c-.2-.5-2.6 0-5.4 1.1-2.7 1.1-4.7 2.3-4.5 2.8.2.5 2.6 0 5.4-1.1 2.7-1.1 4.7-2.4 4.5-2.8zM660.5 271.6c.2-.6-1.9-1.7-4.8-2.4s-5.3-.9-5.5-.3c-.2.6 1.9 1.7 4.8 2.4 2.8.8 5.3.9 5.5.3zM656.1 265.6c1.9 1.2 3.8 1.7 4.2 1.2.4-.5-.8-1.9-2.7-3-.1-.1-.2-.1-.3-.2-1.8-1.1-3.5-1.5-3.9-1.1-.4.5.8 1.9 2.7 3.1zM675.1 237.8c-.7.1-1.1 1.7-.8 3.8.2 2 1 3.6 1.7 3.5s1.1-1.7.8-3.8c-.2-2-1-3.6-1.7-3.5zM685.1 237.3c-.3-.2-1.8.9-3.2 2.6-1.4 1.6-2.3 3.1-1.9 3.4.3.2 1.8-.9 3.2-2.6 1.4-1.7 2.3-3.2 1.9-3.4zM668.3 244.1c-1.9-1.2-3.8-1.7-4.2-1.2-.4.5.8 1.9 2.7 3 1.9 1.2 3.8 1.7 4.2 1.2.4-.5-.8-1.8-2.7-3zM664.1 293.2c-1.8.7-3 1.6-2.8 2.1.2.5 1.9.3 3.6-.4 1.8-.7 3-1.6 2.8-2.1-.2-.5-1.8-.3-3.6.4zM659.1 260.5c1.8-.7 3-1.6 2.8-2.1-.2-.5-1.9-.3-3.6.4-1.8.7-3 1.6-2.8 2.1.2.5 1.9.3 3.6-.4zM685 240.6c-.4.1-.5 1.1-.2 2.3.3 1.2.9 2 1.3 2 .4-.1.5-1.1.2-2.3-.3-1.2-.9-2.1-1.3-2zM688.2 234.1c-.4-.1-1 .8-1.3 2s-.2 2.2.2 2.3c.4.1 1-.8 1.3-2 .3-1.2.2-2.2-.2-2.3zM661.7 254.6c1.9.4 3.5.2 3.7-.3.1-.5-1.3-1.2-3.2-1.5-1.9-.4-3.5-.2-3.7.3-.2.4 1.3 1.1 3.2 1.5z"/><path class="st120" d="M665.8 254c.5-.2.3-1.8-.5-3.7-.8-1.9-1.9-3.2-2.5-3s-.3 1.8.5 3.7c.8 1.8 1.9 3.2 2.5 3zM657.5 273.9c-.3.4 1.2 1.5 3.2 2.4 2 .9 3.9 1.3 4.2.8.3-.4-1.2-1.5-3.2-2.4-2.1-.9-4-1.2-4.2-.8zM663 286.6c-.2-.5-1.9-.3-3.6.4-1.8.7-3 1.6-2.8 2.1.2.5 1.9.3 3.6-.4 1.9-.7 3.1-1.6 2.8-2.1z"/><path class="st119" d="M662.7 284.4c0-.8-2.9-1.3-6.5-1.1-3.5.2-6.3 1-6.3 1.8s2.9 1.3 6.5 1.1c3.5-.2 6.3-1 6.3-1.8zM659.6 266.5c.1-.6-3.2-1.4-7.3-1.8-4.1-.4-7.5-.2-7.6.5-.1.6 3.2 1.4 7.3 1.8 4.1.3 7.5.1 7.6-.5zM659.4 279.2c.1-.8-2.8-1.6-6.3-1.7-3.5-.2-6.4.3-6.5 1.1-.1.8 2.8 1.6 6.3 1.7 3.5.2 6.4-.4 6.5-1.1zM663 274.8c-3.5-.2-6.4.3-6.5 1.1-.1.8 2.8 1.6 6.3 1.7 3.5.2 6.4-.3 6.5-1.1 0-.7-2.8-1.5-6.3-1.7zM653 274.4c4.1-1 7.3-2.4 7-3.1-.2-.8-3.8-.6-7.9.4-4.1 1-7.3 2.4-7 3.1.3.7 3.8.5 7.9-.4zM690.4 238.3c-.6-.4-2.1.7-3.5 2.3-1.4 1.6-2 3.3-1.5 3.6.6.4 2.1-.7 3.5-2.3 1.4-1.7 2.1-3.3 1.5-3.6zM662.9 290.5c-3.1.1-5.5.9-5.4 1.7 0 .8 2.6 1.3 5.6 1.2 3.1-.1 5.5-.9 5.4-1.7 0-.8-2.5-1.3-5.6-1.2zM672.2 258.1c-2.9 1-4.9 2.3-4.6 3.1.3.7 2.9.6 5.8-.4s4.9-2.3 4.6-3.1c-.4-.8-2.9-.6-5.8.4zM666.9 267.3c-3.1-.2-5.6.4-5.7 1.1-.1.8 2.4 1.6 5.4 1.7 3.1.2 5.6-.4 5.7-1.1.1-.8-2.3-1.6-5.4-1.7zM677.1 250.3c-2.6-1.4-5-2.1-5.4-1.6-.4.5 1.4 2.1 4 3.5s5 2.1 5.4 1.6c.4-.5-1.4-2-4-3.5zM657.5 257.7c2.7 1.7 5.2 2.6 5.8 2 .5-.6-1.2-2.5-3.8-4.3-2.7-1.7-5.2-2.6-5.8-2-.5.7 1.2 2.6 3.8 4.3zM680.9 236c-.7 0-1.3 1.8-1.5 4.1-.2 2.3.2 4.2.9 4.3.7 0 1.3-1.8 1.5-4.1.1-2.3-.3-4.2-.9-4.3zM660 252.2c2.7 1.7 5.2 2.6 5.8 2 .5-.6-1.2-2.5-3.8-4.3-2.7-1.7-5.2-2.6-5.8-2-.6.7 1.1 2.6 3.8 4.3zM670.9 243.5c2.7 1.7 5.2 2.6 5.8 2 .5-.6-1.2-2.5-3.8-4.3-2.7-1.7-5.2-2.6-5.8-2-.5.6 1.2 2.5 3.8 4.3zM665.7 247.7c4.1.4 7.5.2 7.6-.5.1-.6-3.2-1.4-7.3-1.8-4.1-.4-7.5-.2-7.6.5 0 .6 3.2 1.4 7.3 1.8z"/><path class="st120" d="M681.1 247.3c-.1 0-.2-.1-.2-.1-1.5-.9-2.9-1.2-3.3-.8-.4.5.6 1.6 2.1 2.6s3.1 1.4 3.5.9c.4-.5-.5-1.7-2.1-2.6zM666.3 283.2c1.9 1.2 3.8 1.7 4.2 1.2.4-.5-.8-1.9-2.7-3-.1-.1-.2-.1-.3-.2-1.8-1.1-3.5-1.5-3.9-1.1-.4.6.8 1.9 2.7 3.1zM676.4 261c-.7.1-1.1 1.7-.8 3.8.2 2 1 3.6 1.7 3.5.7-.1 1.1-1.7.8-3.8-.2-2-1-3.5-1.7-3.5zM668.7 262.7c.1-.5-1.5-1-3.4-1.2-1.9-.1-3.5.2-3.6.7s1.5 1 3.4 1.2c1.9.1 3.5-.2 3.6-.7zM673.2 256.3c.5-.3-.1-1.8-1.2-3.6-1.2-1.7-2.5-2.9-3-2.6-.5.3.1 1.8 1.2 3.6 1.2 1.7 2.5 2.8 3 2.6zM667.5 287.2c-1.8.7-3 1.6-2.8 2.1.2.5 1.9.3 3.6-.4 1.8-.7 3-1.6 2.8-2.1-.2-.5-1.9-.3-3.6.4zM672.7 268.4c-.1-.1-.2-.1-.3-.2-1.8-1.1-3.5-1.5-3.9-1.1-.4.5.8 1.9 2.7 3s3.8 1.7 4.2 1.2c.4-.4-.8-1.7-2.7-2.9zM666.4 273.8c.5-.2.3-1.8-.5-3.7-.8-1.9-1.9-3.2-2.5-3-.5.2-.3 1.8.5 3.7.9 1.8 2 3.1 2.5 3zM669.3 259.4c1.9 1.2 3.8 1.7 4.2 1.2.4-.5-.8-1.9-2.7-3s-3.8-1.7-4.2-1.2c-.4.5.8 1.8 2.7 3zM679.8 257.9c-1.9-.1-3.5.2-3.6.7s1.5 1 3.4 1.2c1.9.1 3.5-.2 3.6-.7 0-.5-1.5-1.1-3.4-1.2zM679 255.9c.5-.2.3-1.8-.5-3.7-.8-1.9-1.9-3.2-2.5-3-.5.2-.3 1.8.5 3.7.8 1.8 1.9 3.2 2.5 3z"/><path class="st106" d="M718.8 316.4c0 .2 1.6-7 1.1-12.3l5.5-2.1c-1 4.5-2.9 10-6.6 14.4z"/><path class="st109" d="m712.7 262-.6 1.8s-1.1.2-1.2.3c-.1 0-.7-1.8-.7-1.8 0-.1 2.1-8.3 2.1-8.3h.6c1.3.1 2.2 1.4 1.7 2.6l-1.9 5.4z"/><path class="st106" d="m714.6 256.5-1.9 5.5-1.3.1c-.3-1.1 1-3.8 3.2-5.6z"/><path class="st109" d="M710.3 261.8c2-1.1 5.5-1 6.8-.4.9 1.8.5 2.2.5 2.2s-3.8-.4-7 1.5l-.3-3.3z"/><path class="st43" d="m595.3 39 7.8-3 12.5 2-.2 11.5-8.3 2.3-12.3-1.2z"/><path class="st20" d="m603.1 36-.1 11.7 12.4 1.8.2-11.6z"/><path class="st43" d="m392.2 33.3 7.7-3.2 12.5 1.5-.1 11.6-8.3 2.6-12.4-.9z"/><path class="st20" d="m399.9 30.1-.1 11.7 12.5 1.4.1-11.7z"/><path class="st22" d="m705.1 58.2 7.8-3 12.5 2-.2 11.5-8.3 2.4-12.3-1.3z"/><path class="st38" d="m712.9 55.2-.1 11.7 12.4 1.8.2-11.6z"/><path class="st45" d="m282 51.5 24.6 2.8.1 11.6 15.8 1.7 5.1-2.6.1-23.3-37.7-4.6-8.1 3.4z"/><path class="st46" d="m315.7 52-.1-11.5 11.8 1.5.1 11.4zM315.8 63.8l-.1-11.5 11.8 1.4.1 11.3zM303.2 50.6l-.1-11.6 12.2 1.5.1 11.5zM290.4 49.2l-.1-11.8 12.5 1.5.1 11.7z"/><path class="st37" d="m631.1 113.5 33.6 3.6 13.1-1.3-.1-12-37.7-4.7-9 3.4z"/><path class="st21" d="m665.7 114.1-.1-11.5 11.8 1.4.2 11.4zM653.2 112.7l-.1-11.7 12.2 1.5.1 11.6zM640.5 111.2l-.1-11.7 12.4 1.5.1 11.6z"/></svg>